<svg width="1920" height="981" viewBox="0 0 1920 981" fill="none" xmlns="http://www.w3.org/2000/svg">
<g clip-path="url(#clip0_5101_1747)">
<rect width="1920" height="981" transform="matrix(-1 0 0 1 1920 0)" fill="white"/>
<mask id="mask0_5101_1747" style="mask-type:luminance" maskUnits="userSpaceOnUse" x="0" y="0" width="1920" height="981">
<path d="M1919.57 0H0.426514V980.564H1919.57V0Z" fill="white"/>
</mask>
<g mask="url(#mask0_5101_1747)">
<path d="M1919.57 0H0.426514V980.564H1919.57V0Z" fill="white"/>
<path d="M1919.57 0H0.426514V980.564H1919.57V0Z" fill="#FEFEFE"/>
<path fill-rule="evenodd" clip-rule="evenodd" d="M1919.57 0H0.426514V980.564H1919.57V0Z" fill="#72C9F2"/>
</g>
<mask id="mask1_5101_1747" style="mask-type:luminance" maskUnits="userSpaceOnUse" x="0" y="187" width="1920" height="794">
<path d="M1919.57 187.916H0.426514V980.564H1919.57V187.916Z" fill="white"/>
</mask>
<g mask="url(#mask1_5101_1747)">
<path fill-rule="evenodd" clip-rule="evenodd" d="M1919.57 980.564V202.731C1917.17 202.731 1915.26 202.486 1912.86 202.486C1859.12 201.262 1813.06 219.892 1801.07 245.631C1731.5 247.592 1672.96 271.861 1653.77 304.955C1638.42 302.013 1621.63 300.298 1603.87 299.808C1570.77 299.072 1539.58 303.485 1512.71 311.575C1495.92 293.433 1459.94 280.442 1417.72 279.461C1360.14 278.234 1310.72 299.808 1303.53 328.734C1264.66 329.47 1228.68 335.843 1198.45 346.63C1196.53 305.691 1137.04 271.371 1058.36 265.733C1059.8 261.811 1061.24 258.134 1061.71 253.967C1064.11 222.833 1016.61 196.604 956.163 195.377C903.863 194.151 858.286 211.557 844.85 236.315C833.337 234.6 821.343 233.619 808.867 233.374C772.883 232.638 738.34 238.032 710.51 247.837C686.52 229.697 646.7 217.44 600.64 216.215C523.393 214.744 458.143 245.141 454.783 284.609C454.783 286.324 454.783 287.796 454.783 289.511C448.547 288.777 442.79 288.532 437.993 288.532C415.923 288.286 409.683 289.267 396.73 291.228C383.776 261.566 314.207 239.013 271.026 238.277C227.847 237.787 223.526 240.973 203.857 246.612C162.593 192.927 74.7932 181.65 0.426514 191.21V980.564H1919.57Z" fill="#C4E2F6"/>
</g>
<mask id="mask2_5101_1747" style="mask-type:luminance" maskUnits="userSpaceOnUse" x="0" y="528" width="1920" height="453">
<path d="M1919.57 528.868H0.426514V980.564H1919.57V528.868Z" fill="white"/>
</mask>
<g mask="url(#mask2_5101_1747)">
<path fill-rule="evenodd" clip-rule="evenodd" d="M0.426514 687.131C20.0966 697.426 35.9298 709.929 46.9666 723.901C67.5966 718.753 90.1465 715.321 114.136 713.606C159.237 710.665 202.896 714.587 241.28 724.147C259.99 697.917 305.57 678.06 363.146 673.893C441.83 668.5 514.757 695.221 531.07 734.197C584.327 732.727 635.663 739.1 679.323 751.848C671.647 695.71 745.057 645.212 851.09 632.464C847.73 627.315 845.33 622.169 843.89 616.775C832.857 574.365 890.91 535.388 973.913 529.75C1044.92 524.847 1110.65 545.93 1135.12 578.778C1150.48 575.837 1166.79 573.875 1183.58 572.65C1233 569.217 1280.98 574.365 1321.76 585.887C1350.07 559.657 1401.4 540.291 1464.26 536.123C1569.33 528.769 1665.77 566.521 1679.68 620.207C1680.64 622.414 1680.64 624.619 1681.12 626.825C1689.28 625.6 1697.43 624.619 1704.15 624.374C1733.9 622.414 1742.53 623.638 1760.76 625.355C1771.32 584.172 1860.56 548.871 1919.57 545.194V980.564H0.426514V687.131Z" fill="#E6F4FC"/>
</g>
<mask id="mask3_5101_1747" style="mask-type:luminance" maskUnits="userSpaceOnUse" x="0" y="657" width="1920" height="463">
<path d="M1919.57 657H0.426514V1119.56H1919.57V657Z" fill="white"/>
</mask>
<g mask="url(#mask3_5101_1747)">
<path fill-rule="evenodd" clip-rule="evenodd" d="M1919.57 935.892C1909.5 933.496 1899.42 931.697 1888.39 931.098C1820.74 926.004 1759.8 956.267 1751.65 998.215C1750.69 1003.61 1750.69 1009 1751.17 1014.1C1662.89 1013.2 1585.16 1052.45 1569.33 1107.28C1539.58 1089.6 1502.16 1077.02 1459.46 1071.62C1461.86 1032.07 1415.32 997.316 1351.51 992.821C1304.49 989.226 1260.83 1002.71 1235.4 1025.48C1209.49 1011.4 1176.38 1002.11 1139.92 999.414C1120.25 997.915 1101.06 998.515 1082.83 1000.61C1073.23 954.169 1017.57 914.919 942.247 904.731C937.93 868.777 893.31 838.813 834.297 834.319C767.127 829.225 706.193 859.188 697.557 901.136C688.44 899.637 679.323 898.438 669.73 897.839C653.896 896.642 639.023 896.642 624.15 897.839C585.286 865.479 521.953 841.809 470.617 837.314C403.927 831.923 376.58 839.113 336.757 852.296C307.49 807.652 221.13 771.996 159.717 766.902C98.3032 761.81 79.1099 767.201 43.6066 776.49C44.5665 773.494 26.3365 815.442 46.0065 767.801C63.7599 724.954 42.6465 686.903 0.426514 657.239V1119.56H1919.57V935.892Z" fill="#F6F8F9"/>
</g>
<mask id="mask4_5101_1747" style="mask-type:luminance" maskUnits="userSpaceOnUse" x="0" y="730" width="1920" height="390">
<path d="M0.426758 730H1919.57V1119.56H0.426758V730Z" fill="white"/>
</mask>
<g mask="url(#mask4_5101_1747)">
<path fill-rule="evenodd" clip-rule="evenodd" d="M0.426758 964.878C10.5034 962.86 20.5768 961.346 31.6134 960.841C99.2634 956.551 160.197 982.038 168.353 1017.37C169.31 1021.91 169.31 1026.45 168.83 1030.74C257.113 1029.98 334.837 1063.04 350.67 1109.22C380.417 1094.33 417.84 1083.73 460.543 1079.19C458.143 1045.88 504.683 1016.61 568.493 1012.82C615.513 1009.8 659.173 1021.15 684.603 1040.33C710.51 1028.47 743.617 1020.65 780.08 1018.38C799.75 1017.11 818.943 1017.62 837.173 1019.39C846.77 980.271 902.427 947.215 977.753 938.635C982.07 908.355 1026.69 883.12 1085.7 879.335C1152.87 875.045 1213.81 900.28 1222.44 935.608C1231.56 934.345 1240.68 933.336 1250.27 932.831C1266.1 931.823 1280.98 931.823 1295.85 932.831C1334.71 905.578 1398.05 885.643 1449.38 881.858C1516.07 877.317 1543.42 883.373 1583.24 894.475C1612.51 856.877 1698.87 826.848 1760.28 822.558C1821.7 818.269 1840.89 822.81 1876.39 830.633C1875.43 828.11 1893.66 863.438 1873.99 823.315C1856.24 787.23 1877.35 755.184 1919.57 730.202V1119.56H0.426758V964.878Z" fill="#F6F8F9"/>
</g>
</g>
<defs>
<clipPath id="clip0_5101_1747">
<rect width="1920" height="981" fill="white" transform="matrix(-1 0 0 1 1920 0)"/>
</clipPath>
</defs>
</svg>
