<?xml version="1.0" encoding="UTF-8" standalone="no"?>
<svg
   width="1920"
   height="981"
   viewBox="0 0 1920 981"
   fill="none"
   version="1.1"
   id="svg13"
   sodipodi:docname="bg1_1.svg"
   inkscape:version="1.3 (0e150ed6c4, 2023-07-21)"
   xmlns:inkscape="http://www.inkscape.org/namespaces/inkscape"
   xmlns:sodipodi="http://sodipodi.sourceforge.net/DTD/sodipodi-0.dtd"
   xmlns="http://www.w3.org/2000/svg"
   xmlns:svg="http://www.w3.org/2000/svg">
  <sodipodi:namedview
     id="namedview13"
     pagecolor="#ffffff"
     bordercolor="#000000"
     borderopacity="0.25"
     inkscape:showpageshadow="2"
     inkscape:pageopacity="0.0"
     inkscape:pagecheckerboard="0"
     inkscape:deskcolor="#d1d1d1"
     inkscape:zoom="17.6"
     inkscape:cx="1921.0796"
     inkscape:cy="16.107955"
     inkscape:window-width="1920"
     inkscape:window-height="991"
     inkscape:window-x="2391"
     inkscape:window-y="-9"
     inkscape:window-maximized="1"
     inkscape:current-layer="svg13"
     showguides="true" />
  <g
     clip-path="url(#clip0_5101_1682)"
     id="g13">
    <rect
       width="1920"
       height="981"
       fill="#ffffff"
       id="rect1"
       x="0"
       y="0" />
    <mask
       id="mask0_5101_1682"
       maskUnits="userSpaceOnUse"
       x="0"
       y="0"
       width="1920"
       height="981">
      <path
         d="M 0.426636,0 H 1919.57 V 980.564 H 0.426636 Z"
         fill="#ffffff"
         id="path1" />
    </mask>
    <g
       mask="url(#mask0_5101_1682)"
       id="g4"
       style="display:inline"
       transform="matrix(1.0004463,0,0,1,-0.42670434,0)">
      <path
         d="M 0.426636,0 H 1919.57 V 980.564 H 0.426636 Z"
         fill="#ffffff"
         id="path2" />
      <path
         d="M 0.426636,0 H 1919.57 V 980.564 H 0.426636 Z"
         fill="#fefefe"
         id="path3" />
      <path
         fill-rule="evenodd"
         clip-rule="evenodd"
         d="M 0.426636,0 H 1919.57 V 980.564 H 0.426636 Z"
         fill="#72c9f2"
         id="path4" />
    </g>
    <mask
       id="mask1_5101_1682"
       maskUnits="userSpaceOnUse"
       x="0"
       y="187"
       width="1920"
       height="794">
      <path
         d="M 0.426636,187.916 H 1919.57 V 980.564 H 0.426636 Z"
         fill="#ffffff"
         id="path5" />
    </mask>
    <g
       mask="url(#mask1_5101_1682)"
       id="g6"
       transform="matrix(1.0004463,0,0,1,-0.42670434,0)">
      <path
         fill-rule="evenodd"
         clip-rule="evenodd"
         d="M 0.426636,980.564 V 202.731 c 2.400004,0 4.316664,-0.245 6.716664,-0.245 53.7367,-1.224 99.7967,17.406 111.7897,43.145 69.57,1.961 128.104,26.23 147.294,59.324 15.353,-2.942 32.146,-4.657 49.9,-5.147 33.103,-0.736 64.29,3.677 91.16,11.767 16.79,-18.142 52.776,-31.133 94.996,-32.114 57.574,-1.227 106.994,20.347 114.19,49.273 38.864,0.736 74.847,7.109 105.074,17.896 1.92,-40.939 61.413,-75.259 140.096,-80.897 -1.44,-3.922 -2.88,-7.599 -3.356,-11.766 -2.4,-31.134 45.1,-57.363 105.55,-58.59 52.303,-1.226 97.873,16.18 111.313,40.938 11.51,-1.715 23.51,-2.696 35.98,-2.941 35.99,-0.736 70.53,4.658 98.36,14.463 23.99,-18.14 63.81,-30.397 109.87,-31.622 77.25,-1.471 142.5,28.926 145.86,68.394 v 4.902 c 6.23,-0.734 11.99,-0.979 16.79,-0.979 22.07,-0.246 28.31,0.735 41.26,2.696 12.95,-29.662 82.52,-52.215 125.7,-52.951 43.18,-0.49 47.7273,6.78691 67.3973,12.42591 41.27,-53.685 112.2518,-47.75918 203.2027,-47.97191 v 777.833 z"
         fill="#c4e2f6"
         id="path6"
         sodipodi:nodetypes="cccccccccccccccccccccccccc" />
    </g>
    <mask
       id="mask2_5101_1682"
       maskUnits="userSpaceOnUse"
       x="0"
       y="528"
       width="1920"
       height="453">
      <path
         d="M 0.426636,528.868 H 1919.57 V 980.564 H 0.426636 Z"
         fill="#ffffff"
         id="path7" />
    </mask>
    <g
       mask="url(#mask2_5101_1682)"
       id="g8"
       transform="matrix(1.0004463,0,0,1,-0.42670434,0)">
      <path
         fill-rule="evenodd"
         clip-rule="evenodd"
         d="m 1919.57,545.194 c 0,0 -61.8694,-4.40193 -113.71,24.77564 -58.0497,32.67228 -88.76,144.61736 -127.14,154.17736 -18.71,-26.23 -64.29,-46.087 -121.87,-50.254 -78.68,-5.393 -151.61,21.328 -167.92,60.304 -53.26,-1.47 -104.59,4.903 -148.25,17.651 7.67,-56.138 -65.74,-106.636 -171.77,-119.384 3.36,-5.149 5.76,-10.295 7.2,-15.689 11.03,-42.41 -47.02,-81.387 -130.023,-87.025 -71.01,-4.903 -136.74,16.18 -161.21,49.028 -15.354,-2.941 -31.664,-4.903 -48.457,-6.128 -49.42,-3.433 -97.397,1.715 -138.18,13.237 -28.307,-26.23 -79.643,-45.596 -142.497,-49.764 -105.073,-7.354 -201.51,30.398 -215.423,84.084 -0.96,2.207 -0.96,4.412 -1.44,6.618 -8.157,-1.225 -16.313,-2.206 -23.03,-2.451 -29.747,-1.96 -38.383,-0.736 -56.613,0.981 C 148.68,584.172 59.44,548.871 0.426636,545.194 v 435.37 H 1919.57 Z"
         fill="#e6f4fc"
         id="path8"
         sodipodi:nodetypes="csccccccccccccccccccc" />
    </g>
    <mask
       id="mask3_5101_1682"
       maskUnits="userSpaceOnUse"
       x="0"
       y="657"
       width="1920"
       height="463">
      <path
         d="M 0.426636,657 H 1919.57 v 462.56 H 0.426636 Z"
         fill="#ffffff"
         id="path9" />
    </mask>
    <g
       mask="url(#mask3_5101_1682)"
       id="g10"
       transform="matrix(1.0004463,0,0,1,-0.42670434,0)">
      <path
         fill-rule="evenodd"
         clip-rule="evenodd"
         d="M 0.426636,935.892 C 10.5033,933.496 20.5766,931.697 31.6133,931.098 c 67.65,-5.094 128.5837,25.169 136.7397,67.117 0.957,5.395 0.957,10.785 0.477,15.885 88.283,-0.9 166.007,38.35 181.84,93.18 29.747,-17.68 67.17,-30.26 109.873,-35.66 -2.4,-39.55 44.14,-74.304 107.95,-78.799 47.02,-3.595 90.68,9.889 116.11,32.659 25.907,-14.08 59.014,-23.37 95.477,-26.066 19.67,-1.499 38.863,-0.899 57.093,1.196 9.597,-46.441 65.254,-85.691 140.58,-95.879 4.317,-35.954 48.937,-65.918 107.947,-70.412 67.17,-5.094 128.11,24.869 136.74,66.817 9.12,-1.499 18.24,-2.698 27.83,-3.297 15.83,-1.197 30.71,-1.197 45.58,0 38.86,-32.36 102.2,-56.03 153.53,-60.525 66.69,-5.391 94.04,1.799 133.86,14.982 29.27,-44.644 115.63,-80.3 177.04,-85.394 61.42,-5.092 67.7535,22.15503 80.1118,30.47979 -0.1828,-12.77252 27.2627,-88.08888 79.1781,-67.17979 l 10e-5,389.358 H 0.426636 Z"
         fill="#f6f8f9"
         id="path10"
         sodipodi:nodetypes="ccccccccccccccccccccccc" />
    </g>
    <mask
       id="mask4_5101_1682"
       maskUnits="userSpaceOnUse"
       x="0"
       y="730"
       width="1920"
       height="390">
      <path
         d="M 1919.57,730 H 0.426514 v 389.56 H 1919.57 Z"
         fill="#ffffff"
         id="path11" />
    </mask>
    <g
       mask="url(#mask4_5101_1682)"
       id="g12"
       transform="matrix(1.0004463,0,0,1,-0.42670434,0)">
      <path
         fill-rule="evenodd"
         clip-rule="evenodd"
         d="m 1919.57,964.878 c -10.07,-2.018 -20.15,-3.532 -31.18,-4.037 -67.65,-4.29 -128.59,21.197 -136.74,56.529 -0.96,4.54 -0.96,9.08 -0.48,13.37 -88.28,-0.76 -166.01,32.3 -181.84,78.48 -29.75,-14.89 -67.17,-25.49 -109.87,-30.03 2.4,-33.31 -44.14,-62.58 -107.95,-66.37 -47.02,-3.02 -90.68,8.33 -116.11,27.51 -25.91,-11.86 -59.02,-19.68 -95.48,-21.95 -19.67,-1.27 -38.86,-0.76 -57.09,1.01 -9.6,-39.119 -65.26,-72.175 -140.583,-80.755 -4.317,-30.28 -48.937,-55.515 -107.95,-59.3 -67.17,-4.29 -128.104,20.945 -136.74,56.273 -9.117,-1.263 -18.234,-2.272 -27.827,-2.777 -15.834,-1.008 -30.707,-1.008 -45.58,0 -38.864,-27.253 -102.197,-47.188 -153.533,-50.973 -66.69,-4.541 -94.037,1.515 -133.86,12.617 -29.267,-37.598 -115.627,-67.627 -177.04,-71.917 -61.4138,-4.289 -80.6071,0.252 -116.1104,8.075 0.9599,-2.523 -17.2701,32.805 2.3999,-7.318 17.7534,-36.085 -3.36,-68.131 -45.579986,-93.113 V 1119.56 H 1919.57 Z"
         fill="#f6f8f9"
         id="path12" />
    </g>
  </g>
  <defs
     id="defs13">
    <clipPath
       id="clip0_5101_1682">
      <rect
         width="1920"
         height="981"
         fill="white"
         id="rect13" />
    </clipPath>
    <clipPath
       id="clip0_5101_1682-3">
      <rect
         width="1920"
         height="981"
         fill="#ffffff"
         id="rect13-3"
         x="0"
         y="0" />
    </clipPath>
    <mask
       id="mask0_5101_1682-1"
       maskUnits="userSpaceOnUse"
       x="0"
       y="0"
       width="1920"
       height="981">
      <path
         d="M 0.426636,0 H 1919.57 V 980.564 H 0.426636 Z"
         fill="#ffffff"
         id="path1-7" />
    </mask>
    <mask
       id="mask1_5101_1682-8"
       maskUnits="userSpaceOnUse"
       x="0"
       y="187"
       width="1920"
       height="794">
      <path
         d="M 0.426636,187.916 H 1919.57 V 980.564 H 0.426636 Z"
         fill="#ffffff"
         id="path5-0" />
    </mask>
    <mask
       id="mask2_5101_1682-5"
       maskUnits="userSpaceOnUse"
       x="0"
       y="528"
       width="1920"
       height="453">
      <path
         d="M 0.426636,528.868 H 1919.57 V 980.564 H 0.426636 Z"
         fill="#ffffff"
         id="path7-2" />
    </mask>
    <mask
       id="mask3_5101_1682-3"
       maskUnits="userSpaceOnUse"
       x="0"
       y="657"
       width="1920"
       height="463">
      <path
         d="M 0.426636,657 H 1919.57 v 462.56 H 0.426636 Z"
         fill="#ffffff"
         id="path9-5" />
    </mask>
    <mask
       id="mask4_5101_1682-3"
       maskUnits="userSpaceOnUse"
       x="0"
       y="730"
       width="1920"
       height="390">
      <path
         d="M 1919.57,730 H 0.426514 v 389.56 H 1919.57 Z"
         fill="#ffffff"
         id="path11-6" />
    </mask>
  </defs>
</svg>
