<?xml version="1.0" encoding="UTF-8" standalone="no"?>
<svg
   width="1920"
   height="981"
   viewBox="0 0 1920 981"
   fill="none"
   version="1.1"
   id="svg13"
   sodipodi:docname="bg1_2.svg"
   inkscape:version="1.3 (0e150ed6c4, 2023-07-21)"
   xmlns:inkscape="http://www.inkscape.org/namespaces/inkscape"
   xmlns:sodipodi="http://sodipodi.sourceforge.net/DTD/sodipodi-0.dtd"
   xmlns="http://www.w3.org/2000/svg"
   xmlns:svg="http://www.w3.org/2000/svg">
  <sodipodi:namedview
     id="namedview13"
     pagecolor="#ffffff"
     bordercolor="#000000"
     borderopacity="0.25"
     inkscape:showpageshadow="2"
     inkscape:pageopacity="0.0"
     inkscape:pagecheckerboard="0"
     inkscape:deskcolor="#d1d1d1"
     showguides="false"
     inkscape:zoom="0.5"
     inkscape:cx="878"
     inkscape:cy="581"
     inkscape:window-width="1920"
     inkscape:window-height="991"
     inkscape:window-x="2391"
     inkscape:window-y="-9"
     inkscape:window-maximized="1"
     inkscape:current-layer="svg13" />
  <defs
     id="defs13">
    <clipPath
       id="clip0_5101_1747">
      <rect
         width="1920"
         height="981"
         fill="white"
         transform="matrix(-1 0 0 1 1920 0)"
         id="rect13" />
    </clipPath>
  </defs>
  <g
     clip-path="url(#clip0_5101_1747)"
     id="g26">
    <rect
       width="1920"
       height="981"
       transform="matrix(-1,0,0,1,1920,0)"
       fill="#ffffff"
       id="rect14"
       x="0"
       y="0" />
    <mask
       id="mask14"
       maskUnits="userSpaceOnUse"
       x="0"
       y="0"
       width="1920"
       height="981">
      <path
         d="M 1919.57,0 H 0.426514 V 980.564 H 1919.57 Z"
         fill="#ffffff"
         id="path14" />
    </mask>
    <g
       mask="url(#mask0_5101_1747)"
       id="g17"
       transform="matrix(1.0004481,0,0,1,-0.43019112,0)">
      <path
         d="M 1919.57,0 H 0.426514 V 980.564 H 1919.57 Z"
         fill="#ffffff"
         id="path15" />
      <path
         d="M 1919.57,0 H 0.426514 V 980.564 H 1919.57 Z"
         fill="#fefefe"
         id="path16" />
      <path
         fill-rule="evenodd"
         clip-rule="evenodd"
         d="M 1919.57,0 H 0.426514 V 980.564 H 1919.57 Z"
         fill="#72c9f2"
         id="path17" />
    </g>
    <mask
       id="mask18"
       maskUnits="userSpaceOnUse"
       x="0"
       y="187"
       width="1920"
       height="794">
      <path
         d="M 1919.57,187.916 H 0.426514 V 980.564 H 1919.57 Z"
         fill="#ffffff"
         id="path18" />
    </mask>
    <g
       mask="url(#mask1_5101_1747)"
       id="g19"
       transform="matrix(1.0004481,0,0,1,-0.43019112,0)">
      <path
         fill-rule="evenodd"
         clip-rule="evenodd"
         d="M 1919.57,980.564 V 202.731 c -2.4,0 -4.31,-0.245 -6.71,-0.245 -53.74,-1.224 -99.8,17.406 -111.79,43.145 -69.57,1.961 -128.11,26.23 -147.3,59.324 -15.35,-2.942 -32.14,-4.657 -49.9,-5.147 -33.1,-0.736 -64.29,3.677 -91.16,11.767 -16.79,-18.142 -52.77,-31.133 -94.99,-32.114 -57.58,-1.227 -107,20.347 -114.19,49.273 -38.87,0.736 -74.85,7.109 -105.08,17.896 -1.92,-40.939 -61.41,-75.259 -140.09,-80.897 1.44,-3.922 2.88,-7.599 3.35,-11.766 2.4,-31.134 -45.1,-57.363 -105.547,-58.59 -52.3,-1.226 -97.877,16.18 -111.313,40.938 -11.513,-1.715 -23.507,-2.696 -35.983,-2.941 -35.984,-0.736 -70.527,4.658 -98.357,14.463 -23.99,-18.14 -63.81,-30.397 -109.87,-31.622 -77.247,-1.471 -142.497,28.926 -145.857,68.394 v 4.902 c -6.236,-0.734 -11.993,-0.979 -16.79,-0.979 -22.07,-0.246 -28.31,0.735 -41.263,2.696 -12.954,-29.662 -82.523,-52.215 -125.704,-52.951 -43.179,-0.49 -73.21297,16.83814 -92.88197,22.47714 C 136.88003,207.06914 75.43601,208.59878 0.4265,202.731 l 1.4e-5,777.833 z"
         fill="#c4e2f6"
         id="path19"
         sodipodi:nodetypes="cccccccccccccccccccccccccc" />
    </g>
    <mask
       id="mask20"
       maskUnits="userSpaceOnUse"
       x="0"
       y="528"
       width="1920"
       height="453">
      <path
         d="M 1919.57,528.868 H 0.426514 V 980.564 H 1919.57 Z"
         fill="#ffffff"
         id="path20" />
    </mask>
    <g
       mask="url(#mask2_5101_1747)"
       id="g21"
       transform="matrix(1.0004481,0,0,1,-0.43019112,0)">
      <path
         fill-rule="evenodd"
         clip-rule="evenodd"
         d="m 0.4265,545.194 c 58.174416,0.23007 156.20595,92.77855 161.14328,146.81178 18.71,-26.23 115.71595,-30.59978 173.29195,-34.76678 78.684,-5.393 179.89527,37.982 196.20827,76.958 53.257,-1.47 104.593,4.903 148.253,17.651 -7.676,-56.138 65.734,-106.636 171.767,-119.384 -3.36,-5.149 -5.76,-10.295 -7.2,-15.689 -11.033,-42.41 47.02,-81.387 130.023,-87.025 71.007,-4.903 136.737,16.18 161.207,49.028 15.36,-2.941 31.67,-4.903 48.46,-6.128 49.42,-3.433 97.4,1.715 138.18,13.237 28.31,-26.23 79.64,-45.596 142.5,-49.764 105.07,-7.354 201.51,30.398 215.42,84.084 0.96,2.207 0.96,4.412 1.44,6.618 8.16,-1.225 16.31,-2.206 23.03,-2.451 29.75,-1.96 38.38,-0.736 56.61,0.981 10.56,-41.183 99.8,-76.484 158.81,-80.161 v 435.37 H 0.426514 Z"
         fill="#e6f4fc"
         id="path21"
         sodipodi:nodetypes="cccccccccccccccccccc" />
    </g>
    <mask
       id="mask22"
       maskUnits="userSpaceOnUse"
       x="0"
       y="657"
       width="1920"
       height="463">
      <path
         d="M 1919.57,657 H 0.426514 v 462.56 H 1919.57 Z"
         fill="#ffffff"
         id="path22" />
    </mask>
    <g
       mask="url(#mask3_5101_1747)"
       id="g23"
       transform="matrix(1.0004481,0,0,1,-0.43019112,0)">
      <path
         fill-rule="evenodd"
         clip-rule="evenodd"
         d="m 1919.57,935.892 c -10.07,-2.396 -20.15,-4.195 -31.18,-4.794 -67.65,-5.094 -128.59,25.169 -136.74,67.117 -0.96,5.395 -0.96,10.785 -0.48,15.885 -88.28,-0.9 -166.01,38.35 -181.84,93.18 -29.75,-17.68 -67.17,-30.26 -109.87,-35.66 2.4,-39.55 -44.14,-74.304 -107.95,-78.799 -47.02,-3.595 -90.68,9.889 -116.11,32.659 -25.91,-14.08 -59.02,-23.37 -95.48,-26.066 -19.67,-1.499 -38.86,-0.899 -57.09,1.196 -9.6,-46.441 -65.26,-85.691 -140.583,-95.879 -4.317,-35.954 -48.937,-65.918 -107.95,-70.412 -67.17,-5.094 -128.104,24.869 -136.74,66.817 -9.117,-1.499 -18.234,-2.698 -27.827,-3.297 -15.834,-1.197 -30.707,-1.197 -45.58,0 -38.864,-32.36 -102.197,-56.03 -153.533,-60.525 -66.69,-5.391 -94.037,1.799 -133.86,14.982 C 307.49,807.652 221.13,771.996 159.717,766.902 98.3032,761.81 79.1099,767.201 43.6066,776.49 56.00374,779.4664 58.252213,730 0.4265,730 l 1.4e-5,389.56 H 1919.57 Z"
         fill="#f6f8f9"
         id="path23"
         sodipodi:nodetypes="ccccccccccccccccccccccc" />
    </g>
    <mask
       id="mask24"
       maskUnits="userSpaceOnUse"
       x="0"
       y="730"
       width="1920"
       height="390">
      <path
         d="M 0.426758,730 H 1919.57 v 389.56 H 0.426758 Z"
         fill="#ffffff"
         id="path24" />
    </mask>
    <g
       mask="url(#mask4_5101_1747)"
       id="g25"
       transform="matrix(1.0004481,0,0,1,-0.43019112,0)">
      <path
         fill-rule="evenodd"
         clip-rule="evenodd"
         d="M 0.426758,964.878 C 10.5034,962.86 20.5768,961.346 31.6134,960.841 c 67.65,-4.29 128.5836,21.197 136.7396,56.529 0.957,4.54 0.957,9.08 0.477,13.37 88.283,-0.76 166.007,32.3 181.84,78.48 29.747,-14.89 67.17,-25.49 109.873,-30.03 -2.4,-33.31 44.14,-62.58 107.95,-66.37 47.02,-3.02 90.68,8.33 116.11,27.51 25.907,-11.86 59.014,-19.68 95.477,-21.95 19.67,-1.27 38.863,-0.76 57.093,1.01 9.597,-39.119 65.254,-72.175 140.58,-80.755 4.317,-30.28 48.937,-55.515 107.947,-59.3 67.17,-4.29 128.11,20.945 136.74,56.273 9.12,-1.263 18.24,-2.272 27.83,-2.777 15.83,-1.008 30.71,-1.008 45.58,0 38.86,-27.253 102.2,-47.188 153.53,-50.973 66.69,-4.541 94.04,1.515 133.86,12.617 29.27,-37.598 115.63,-67.627 177.04,-71.917 61.42,-4.289 80.61,0.252 116.11,8.075 -0.96,-2.523 17.27,32.805 -2.4,-7.318 -17.75,-36.085 1.5418,-93.315 45.58,-93.113 V 1119.56 H 0.426758 Z"
         fill="#f6f8f9"
         id="path25"
         sodipodi:nodetypes="cccccccccccccccccccccccc" />
    </g>
  </g>
</svg>
