<svg width="1921" height="1063" viewBox="0 0 1921 1063" fill="none" xmlns="http://www.w3.org/2000/svg">
<g clip-path="url(#clip0_5101_1805)">
<mask id="mask0_5101_1805" style="mask-type:luminance" maskUnits="userSpaceOnUse" x="-1" y="-160" width="1922" height="1223">
<path d="M-0.146698 -160H1920.15V1063H-0.146698V-160Z" fill="white"/>
</mask>
<g mask="url(#mask0_5101_1805)">
<path d="M1919.78 1062.99H0.139984V-160.003H1919.78V1062.99Z" fill="#BAE4F5"/>
</g>
<mask id="mask1_5101_1805" style="mask-type:luminance" maskUnits="userSpaceOnUse" x="0" y="387" width="1920" height="342">
<path d="M0.139984 387.283H1919.85V728.659H0.139984V387.283Z" fill="white"/>
</mask>
<g mask="url(#mask1_5101_1805)">
<path d="M1919.78 406.092C1919.78 406.092 1681.56 330.415 1326.35 483.542C1087.34 586.574 826.444 420.906 668.432 411.32C510.418 401.731 360.675 462.828 209.755 489.976C91.4217 511.26 0.139984 464.08 0.139984 464.08V728.369H1919.78V406.092Z" fill="#80B191"/>
</g>
<mask id="mask2_5101_1805" style="mask-type:luminance" maskUnits="userSpaceOnUse" x="0" y="406" width="1920" height="323">
<path d="M0.139984 406.249H1919.85V728.659H0.139984V406.249Z" fill="white"/>
</mask>
<g mask="url(#mask2_5101_1805)">
<path d="M0.139984 406.332C0.139984 406.332 231.327 409.444 515.38 496.653C872.141 606.189 938.197 480.143 1193.43 444.009C1373.48 418.517 1588.52 498.565 1919.78 537.339V728.369H0.139984V406.332Z" fill="#609E75"/>
</g>
<mask id="mask3_5101_1805" style="mask-type:luminance" maskUnits="userSpaceOnUse" x="0" y="456" width="1920" height="415">
<path d="M0.139984 456.71H1919.85V870.898H0.139984V456.71Z" fill="white"/>
</mask>
<g mask="url(#mask3_5101_1805)">
<path d="M1919.78 492.431C1919.78 492.431 1619.6 367.282 1141.96 587.404C971.278 666.066 741.896 614.639 544.497 563.217C418.866 530.488 306.189 497.759 229.832 498.565C33.498 500.631 0.139984 543.952 0.139984 543.952L0.300151 870.741H1919.78V492.431Z" fill="#6C8F3E"/>
</g>
<mask id="mask4_5101_1805" style="mask-type:luminance" maskUnits="userSpaceOnUse" x="0" y="545" width="1920" height="299">
<path d="M0.139984 545.778H1919.85V843.087H0.139984V545.778Z" fill="white"/>
</mask>
<g mask="url(#mask4_5101_1805)">
<path d="M0.139984 594.677C0.139984 594.677 107.986 725.497 496.533 606.189C707.803 541.313 870.569 574.362 1008.09 607.415C1123.81 635.223 1221.65 663.034 1315.48 632.504C1717.11 501.83 1919.78 558.056 1919.78 558.056V843.023H0.139984V594.677Z" fill="#90BF52"/>
</g>
<mask id="mask5_5101_1805" style="mask-type:luminance" maskUnits="userSpaceOnUse" x="0" y="555" width="1920" height="246">
<path d="M0.139984 555.637H1919.85V800.438H0.139984V555.637Z" fill="white"/>
</mask>
<g mask="url(#mask5_5101_1805)">
<path d="M0.139984 562.821C0.139984 562.821 213.602 519.087 545.491 651.26C948.224 811.654 1420.26 700.512 1598.32 629.019C1732.43 575.162 1919.78 595.317 1919.78 595.317V800.282H0.139984V562.821Z" fill="#BDD334"/>
</g>
<mask id="mask6_5101_1805" style="mask-type:luminance" maskUnits="userSpaceOnUse" x="0" y="1030" width="1920" height="107">
<path d="M0.139984 1030.75H1919.85V1136.51H0.139984V1030.75Z" fill="white"/>
</mask>
<g mask="url(#mask6_5101_1805)">
<path d="M1919.78 1136.42H0.139984V1031.07H1919.78V1136.42Z" fill="#BDD334"/>
</g>
<mask id="mask7_5101_1805" style="mask-type:luminance" maskUnits="userSpaceOnUse" x="0" y="915" width="1920" height="194">
<path d="M0.139984 915.942H1919.85V1108.64H0.139984V915.942Z" fill="white"/>
</mask>
<g mask="url(#mask7_5101_1805)">
<path d="M1919.78 1108.55H0.139984V916.212H1919.78V1108.55Z" fill="#8CC63F"/>
</g>
<mask id="mask8_5101_1805" style="mask-type:luminance" maskUnits="userSpaceOnUse" x="0" y="747" width="1920" height="81">
<path d="M0.139984 747.554H1919.85V827.886H0.139984V747.554Z" fill="white"/>
</mask>
<g mask="url(#mask8_5101_1805)">
<path d="M1919.78 827.82H0.139984V747.558H1919.78V827.82Z" fill="#8CC63F"/>
</g>
<mask id="mask9_5101_1805" style="mask-type:luminance" maskUnits="userSpaceOnUse" x="0" y="787" width="1920" height="93">
<path d="M0.139984 787.644H1919.85V879.028H0.139984V787.644Z" fill="white"/>
</mask>
<g mask="url(#mask9_5101_1805)">
<path d="M1919.79 878.951H0.139984L1.95187 787.687H1919.85L1919.79 878.951Z" fill="#69952F"/>
</g>
<mask id="mask10_5101_1805" style="mask-type:luminance" maskUnits="userSpaceOnUse" x="0" y="846" width="1920" height="218">
<path d="M0.139984 846.855H1919.85V1063.6H0.139984V846.855Z" fill="white"/>
</mask>
<g mask="url(#mask10_5101_1805)">
<path d="M1919.78 1063.27H0.139984V846.888H1919.78V1063.27Z" fill="#5F3D0A"/>
</g>
<mask id="mask11_5101_1805" style="mask-type:luminance" maskUnits="userSpaceOnUse" x="0" y="979" width="1920" height="36">
<path d="M0.139984 979.611H1919.85V1014.49H0.139984V979.611Z" fill="white"/>
</mask>
<g mask="url(#mask11_5101_1805)">
<path d="M1919.78 1014.41H0.139984V979.884H1919.78V1014.41Z" fill="#472E08"/>
</g>
<mask id="mask12_5101_1805" style="mask-type:luminance" maskUnits="userSpaceOnUse" x="0" y="896" width="1920" height="46">
<path d="M0.139984 896.297H1919.85V941.341H0.139984V896.297Z" fill="white"/>
</mask>
<g mask="url(#mask12_5101_1805)">
<path d="M1919.82 941.294H0.169983V896.623H1919.82V941.294Z" fill="#472E08"/>
</g>
<path d="M465.615 996.777C465.615 1000.29 449.461 1003.13 429.537 1003.13C409.61 1003.13 393.456 1000.29 393.456 996.777C393.456 993.272 409.61 990.426 429.537 990.426C449.461 990.426 465.615 993.272 465.615 996.777Z" fill="#352306"/>
<path d="M419.093 998.556C419.093 998.556 406.834 970.002 383.669 961.782C360.509 953.562 405.469 961.109 414.325 972.644C423.181 984.179 412.963 941.474 404.107 936.633C395.252 931.791 417.732 937.379 425.223 966.903C432.717 996.423 440.892 971.251 440.212 955.604C439.531 939.955 445.661 944.036 447.025 952.882C448.387 961.728 436.805 998.556 436.805 998.556H419.093Z" fill="#006837"/>
<path d="M465.615 996.777C465.615 1000.29 449.461 1003.13 429.537 1003.13C409.61 1003.13 393.456 1000.29 393.456 996.777C393.456 993.272 409.61 990.426 429.537 990.426C449.461 990.426 465.615 993.272 465.615 996.777Z" fill="#352306"/>
<path d="M419.093 998.556C419.093 998.556 406.834 970.002 383.669 961.782C360.509 953.562 405.469 961.109 414.325 972.644C423.181 984.179 412.963 941.474 404.107 936.633C395.252 931.791 417.732 937.379 425.223 966.903C432.717 996.423 440.892 971.251 440.212 955.604C439.531 939.955 445.661 944.036 447.025 952.882C448.387 961.728 436.805 998.556 436.805 998.556H419.093Z" fill="#006837"/>
<path d="M421.002 983.622C421.002 983.622 415.563 957.177 378.09 958.323C378.09 958.323 406.093 962.758 421.002 983.622Z" fill="#39B54A"/>
<path d="M429.177 981.58C429.177 981.58 428.496 942.121 402.613 935.087C402.613 935.087 420.208 940.988 429.177 981.58Z" fill="#39B54A"/>
<path d="M434.399 984.759C434.399 984.759 444.166 969.135 445.524 955.741C446.889 942.347 442 945.282 442 945.282C442 945.282 442.12 967.973 434.399 984.759Z" fill="#39B54A"/>
<path d="M667.315 996.777C667.315 1000.29 651.165 1003.13 631.241 1003.13C611.313 1003.13 595.16 1000.29 595.16 996.777C595.16 993.272 611.313 990.426 631.241 990.426C651.165 990.426 667.315 993.272 667.315 996.777Z" fill="#352306"/>
<path d="M620.796 998.556C620.796 998.556 608.537 970.002 585.373 961.782C562.212 953.562 607.176 961.109 616.028 972.644C624.884 984.179 614.667 941.474 605.811 936.633C596.952 931.791 619.435 937.379 626.929 966.903C634.421 996.423 642.596 971.251 641.915 955.604C641.234 939.955 647.364 944.036 648.725 952.882C650.087 961.728 638.508 998.556 638.508 998.556H620.796Z" fill="#006837"/>
<path d="M622.708 983.622C622.708 983.622 617.269 957.177 579.797 958.323C579.797 958.323 607.796 962.758 622.708 983.622Z" fill="#39B54A"/>
<path d="M630.88 981.58C630.88 981.58 630.199 942.121 604.312 935.087C604.312 935.087 621.907 940.988 630.88 981.58Z" fill="#39B54A"/>
<path d="M636.102 984.759C636.102 984.759 645.866 969.135 647.224 955.741C648.589 942.347 643.703 945.282 643.703 945.282C643.703 945.282 643.824 967.973 636.102 984.759Z" fill="#39B54A"/>
<path d="M879.826 996.777C879.826 1000.29 863.673 1003.13 843.749 1003.13C823.825 1003.13 807.671 1000.29 807.671 996.777C807.671 993.272 823.825 990.426 843.749 990.426C863.673 990.426 879.826 993.272 879.826 996.777Z" fill="#352306"/>
<path d="M833.307 998.556C833.307 998.556 821.041 970.002 797.881 961.782C774.723 953.562 819.68 961.109 828.539 972.644C837.395 984.179 827.174 941.474 818.322 936.633C809.463 931.791 831.946 937.379 839.434 966.903C846.932 996.423 855.107 971.251 854.423 955.604C853.739 939.955 859.872 944.036 861.233 952.882C862.598 961.728 851.016 998.556 851.016 998.556H833.307Z" fill="#006837"/>
<path d="M835.216 983.622C835.216 983.622 829.774 957.177 792.305 958.323C792.305 958.323 820.304 962.758 835.216 983.622Z" fill="#39B54A"/>
<path d="M843.388 981.58C843.388 981.58 842.704 942.121 816.82 935.087C816.82 935.087 834.415 940.988 843.388 981.58Z" fill="#39B54A"/>
<path d="M848.607 984.759C848.607 984.759 858.374 969.135 859.739 955.741C861.1 942.347 856.208 945.282 856.208 945.282C856.208 945.282 856.332 967.973 848.607 984.759Z" fill="#39B54A"/>
<path d="M1081.53 996.777C1081.53 1000.29 1065.38 1003.13 1045.45 1003.13C1025.52 1003.13 1009.37 1000.29 1009.37 996.777C1009.37 993.272 1025.52 990.426 1045.45 990.426C1065.38 990.426 1081.53 993.272 1081.53 996.777Z" fill="#352306"/>
<path d="M1035.01 998.556C1035.01 998.556 1022.75 970.002 999.584 961.782C976.427 953.562 1021.38 961.109 1030.24 972.644C1039.1 984.179 1028.88 941.474 1020.02 936.633C1011.17 931.791 1033.64 937.379 1041.14 966.903C1048.64 996.423 1056.81 971.251 1056.13 955.604C1055.44 939.955 1061.57 944.036 1062.94 952.882C1064.3 961.728 1052.72 998.556 1052.72 998.556H1035.01Z" fill="#006837"/>
<path d="M1036.92 983.622C1036.92 983.622 1031.48 957.177 994.008 958.323C994.008 958.323 1022.01 962.758 1036.92 983.622Z" fill="#39B54A"/>
<path d="M1045.09 981.58C1045.09 981.58 1044.41 942.121 1018.52 935.087C1018.52 935.087 1036.12 940.988 1045.09 981.58Z" fill="#39B54A"/>
<path d="M1050.31 984.759C1050.31 984.759 1060.08 969.135 1061.44 955.741C1062.81 942.347 1057.92 945.282 1057.92 945.282C1057.92 945.282 1058.04 967.973 1050.31 984.759Z" fill="#39B54A"/>
<path d="M1279.39 996.777C1279.39 1000.29 1263.24 1003.13 1243.31 1003.13C1223.39 1003.13 1207.24 1000.29 1207.24 996.777C1207.24 993.272 1223.39 990.426 1243.31 990.426C1263.24 990.426 1279.39 993.272 1279.39 996.777Z" fill="#352306"/>
<path d="M1232.88 998.556C1232.88 998.556 1220.61 970.002 1197.45 961.782C1174.29 953.562 1219.25 961.109 1228.11 972.644C1236.96 984.179 1226.74 941.474 1217.89 936.633C1209.03 931.791 1231.52 937.379 1239 966.903C1246.49 996.423 1254.67 971.251 1253.99 955.604C1253.31 939.955 1259.44 944.036 1260.8 952.882C1262.16 961.728 1250.58 998.556 1250.58 998.556H1232.88Z" fill="#006837"/>
<path d="M1234.79 983.623C1234.79 983.623 1229.35 957.177 1191.87 958.32C1191.87 958.32 1219.88 962.758 1234.79 983.623Z" fill="#39B54A"/>
<path d="M1242.96 981.58C1242.96 981.58 1242.28 942.121 1216.4 935.087C1216.4 935.087 1233.99 940.988 1242.96 981.58Z" fill="#39B54A"/>
<path d="M1248.18 984.759C1248.18 984.759 1257.95 969.135 1259.31 955.741C1260.67 942.347 1255.78 945.282 1255.78 945.282C1255.78 945.282 1255.9 967.973 1248.18 984.759Z" fill="#39B54A"/>
<path d="M210.452 996.777C210.452 1000.29 194.302 1003.13 174.375 1003.13C154.451 1003.13 138.297 1000.29 138.297 996.777C138.297 993.272 154.451 990.426 174.375 990.426C194.302 990.426 210.452 993.272 210.452 996.777Z" fill="#352306"/>
<path d="M163.934 998.556C163.934 998.556 151.671 970.002 128.51 961.782C105.35 953.562 150.31 961.109 159.166 972.644C168.022 984.179 157.801 941.474 148.945 936.633C140.093 931.791 162.569 937.379 170.064 966.903C177.558 996.423 185.73 971.251 185.049 955.604C184.369 939.955 190.498 944.036 191.863 952.882C193.225 961.728 181.646 998.556 181.646 998.556H163.934Z" fill="#006837"/>
<path d="M165.843 983.622C165.843 983.622 160.404 957.177 122.931 958.323C122.931 958.323 150.93 962.758 165.843 983.622Z" fill="#39B54A"/>
<path d="M174.018 981.58C174.018 981.58 173.337 942.121 147.45 935.087C147.45 935.087 165.048 940.988 174.018 981.58Z" fill="#39B54A"/>
<path d="M179.24 984.759C179.24 984.759 189.003 969.135 190.365 955.741C191.73 942.347 186.841 945.282 186.841 945.282C186.841 945.282 186.961 967.973 179.24 984.759Z" fill="#39B54A"/>
<path d="M1507.98 996.777C1507.98 1000.29 1491.83 1003.13 1471.9 1003.13C1451.97 1003.13 1435.82 1000.29 1435.82 996.777C1435.82 993.272 1451.97 990.426 1471.9 990.426C1491.83 990.426 1507.98 993.272 1507.98 996.777Z" fill="#352306"/>
<path d="M1461.46 998.556C1461.46 998.556 1449.19 970.002 1426.03 961.782C1402.87 953.562 1447.83 961.109 1456.69 972.644C1465.54 984.179 1455.32 941.474 1446.47 936.633C1437.62 931.791 1460.09 937.379 1467.59 966.903C1475.08 996.423 1483.25 971.251 1482.57 955.604C1481.89 939.955 1488.02 944.036 1489.39 952.882C1490.75 961.728 1479.17 998.556 1479.17 998.556H1461.46Z" fill="#006837"/>
<path d="M1463.37 983.622C1463.37 983.622 1457.93 957.177 1420.45 958.323C1420.45 958.323 1448.45 962.758 1463.37 983.622Z" fill="#39B54A"/>
<path d="M1471.54 981.58C1471.54 981.58 1470.86 942.121 1444.97 935.087C1444.97 935.087 1462.57 940.988 1471.54 981.58Z" fill="#39B54A"/>
<path d="M1476.76 984.759C1476.76 984.759 1486.53 969.135 1487.89 955.741C1489.25 942.347 1484.36 945.282 1484.36 945.282C1484.36 945.282 1484.48 967.973 1476.76 984.759Z" fill="#39B54A"/>
<path d="M1757.24 996.777C1757.24 1000.29 1741.09 1003.13 1721.16 1003.13C1701.23 1003.13 1685.08 1000.29 1685.08 996.777C1685.08 993.272 1701.23 990.426 1721.16 990.426C1741.09 990.426 1757.24 993.272 1757.24 996.777Z" fill="#352306"/>
<path d="M1710.72 998.556C1710.72 998.556 1698.45 970.002 1675.29 961.782C1652.13 953.562 1697.09 961.109 1705.95 972.644C1714.8 984.179 1704.58 941.474 1695.73 936.633C1686.88 931.791 1709.35 937.379 1716.85 966.903C1724.34 996.423 1732.51 971.251 1731.83 955.604C1731.15 939.955 1737.28 944.036 1738.65 952.882C1740.01 961.728 1728.43 998.556 1728.43 998.556H1710.72Z" fill="#006837"/>
<path d="M1712.63 983.622C1712.63 983.622 1707.19 957.177 1669.71 958.323C1669.71 958.323 1697.71 962.758 1712.63 983.622Z" fill="#39B54A"/>
<path d="M1720.8 981.58C1720.8 981.58 1720.12 942.121 1694.23 935.087C1694.23 935.087 1711.83 940.988 1720.8 981.58Z" fill="#39B54A"/>
<path d="M1726.02 984.759C1726.02 984.759 1735.79 969.135 1737.15 955.741C1738.51 942.347 1733.62 945.282 1733.62 945.282C1733.62 945.282 1733.74 967.973 1726.02 984.759Z" fill="#39B54A"/>
</g>
<defs>
<clipPath id="clip0_5101_1805">
<rect width="1921" height="1063" fill="white"/>
</clipPath>
</defs>
</svg>
