<?xml version="1.0" encoding="UTF-8" standalone="no"?>
<svg
   width="1920"
   height="900"
   viewBox="0 0 1920 900"
   fill="none"
   version="1.1"
   id="svg68"
   sodipodi:docname="bg3 1.svg"
   xmlns:inkscape="http://www.inkscape.org/namespaces/inkscape"
   xmlns:sodipodi="http://sodipodi.sourceforge.net/DTD/sodipodi-0.dtd"
   xmlns="http://www.w3.org/2000/svg"
   xmlns:svg="http://www.w3.org/2000/svg">
  <sodipodi:namedview
     id="namedview68"
     pagecolor="#ffffff"
     bordercolor="#000000"
     borderopacity="0.25"
     inkscape:showpageshadow="2"
     inkscape:pageopacity="0.0"
     inkscape:pagecheckerboard="0"
     inkscape:deskcolor="#d1d1d1" />
  <g
     clip-path="url(#clip0_5101_1805)"
     id="g68"
     transform="matrix(1.0001511,0,0,0.8466604,-0.14000516,0)">
    <mask
       id="mask0_5101_1805"
       maskUnits="userSpaceOnUse"
       x="-1"
       y="-160"
       width="1922"
       height="1223">
      <path
         d="M -0.146698,-160 H 1920.15 V 1063 H -0.146698 Z"
         fill="#ffffff"
         id="path1" />
    </mask>
    <g
       mask="url(#mask0_5101_1805)"
       id="g2">
      <path
         d="M 1919.78,1062.99 H 0.139984 V -160.003 H 1919.78 Z"
         fill="#bae4f5"
         id="path2" />
    </g>
    <mask
       id="mask1_5101_1805"
       maskUnits="userSpaceOnUse"
       x="0"
       y="387"
       width="1920"
       height="342">
      <path
         d="M 0.139984,387.283 H 1919.85 V 728.659 H 0.139984 Z"
         fill="#ffffff"
         id="path3" />
    </mask>
    <g
       mask="url(#mask1_5101_1805)"
       id="g4">
      <path
         d="m 1919.78,406.092 c 0,0 -238.22,-75.677 -593.43,77.45 C 1087.34,586.574 826.444,420.906 668.432,411.32 510.418,401.731 360.675,462.828 209.755,489.976 91.4217,511.26 0.139984,464.08 0.139984,464.08 V 728.369 H 1919.78 Z"
         fill="#80b191"
         id="path4" />
    </g>
    <mask
       id="mask2_5101_1805"
       maskUnits="userSpaceOnUse"
       x="0"
       y="406"
       width="1920"
       height="323">
      <path
         d="M 0.139984,406.249 H 1919.85 v 322.41 H 0.139984 Z"
         fill="#ffffff"
         id="path5" />
    </mask>
    <g
       mask="url(#mask2_5101_1805)"
       id="g6">
      <path
         d="m 0.139984,406.332 c 0,0 231.187016,3.112 515.240016,90.321 356.761,109.536 422.817,-16.51 678.05,-52.644 180.05,-25.492 395.09,54.556 726.35,93.33 v 191.03 H 0.139984 Z"
         fill="#609e75"
         id="path6" />
    </g>
    <mask
       id="mask3_5101_1805"
       maskUnits="userSpaceOnUse"
       x="0"
       y="456"
       width="1920"
       height="415">
      <path
         d="M 0.139984,456.71 H 1919.85 V 870.898 H 0.139984 Z"
         fill="#ffffff"
         id="path7" />
    </mask>
    <g
       mask="url(#mask3_5101_1805)"
       id="g8">
      <path
         d="m 1919.78,492.431 c 0,0 -300.18,-125.149 -777.82,94.973 C 971.278,666.066 741.896,614.639 544.497,563.217 418.866,530.488 306.189,497.759 229.832,498.565 33.498,500.631 0.139984,543.952 0.139984,543.952 L 0.300151,870.741 H 1919.78 Z"
         fill="#6c8f3e"
         id="path8" />
    </g>
    <mask
       id="mask4_5101_1805"
       maskUnits="userSpaceOnUse"
       x="0"
       y="545"
       width="1920"
       height="299">
      <path
         d="M 0.139984,545.778 H 1919.85 V 843.087 H 0.139984 Z"
         fill="#ffffff"
         id="path9" />
    </mask>
    <g
       mask="url(#mask4_5101_1805)"
       id="g10">
      <path
         d="m 0.139984,594.677 c 0,0 107.846016,130.82 496.393016,11.512 211.27,-64.876 374.036,-31.827 511.557,1.226 115.72,27.808 213.56,55.619 307.39,25.089 401.63,-130.674 604.3,-74.448 604.3,-74.448 V 843.023 H 0.139984 Z"
         fill="#90bf52"
         id="path10" />
    </g>
    <mask
       id="mask5_5101_1805"
       maskUnits="userSpaceOnUse"
       x="0"
       y="555"
       width="1920"
       height="246">
      <path
         d="M 0.139984,555.637 H 1919.85 V 800.438 H 0.139984 Z"
         fill="#ffffff"
         id="path11" />
    </mask>
    <g
       mask="url(#mask5_5101_1805)"
       id="g12">
      <path
         d="m 0.139984,562.821 c 0,0 213.462016,-43.734 545.351016,88.439 402.733,160.394 874.769,49.252 1052.829,-22.241 134.11,-53.857 321.46,-33.702 321.46,-33.702 V 800.282 H 0.139984 Z"
         fill="#bdd334"
         id="path12" />
    </g>
    <mask
       id="mask6_5101_1805"
       maskUnits="userSpaceOnUse"
       x="0"
       y="1030"
       width="1920"
       height="107">
      <path
         d="M 0.139984,1030.75 H 1919.85 v 105.76 H 0.139984 Z"
         fill="#ffffff"
         id="path13" />
    </mask>
    <g
       mask="url(#mask6_5101_1805)"
       id="g14">
      <path
         d="M 1919.78,1136.42 H 0.139984 V 1031.07 H 1919.78 Z"
         fill="#bdd334"
         id="path14" />
    </g>
    <mask
       id="mask7_5101_1805"
       maskUnits="userSpaceOnUse"
       x="0"
       y="915"
       width="1920"
       height="194">
      <path
         d="M 0.139984,915.942 H 1919.85 V 1108.64 H 0.139984 Z"
         fill="#ffffff"
         id="path15" />
    </mask>
    <g
       mask="url(#mask7_5101_1805)"
       id="g16">
      <path
         d="M 1919.78,1108.55 H 0.139984 V 916.212 H 1919.78 Z"
         fill="#8cc63f"
         id="path16" />
    </g>
    <mask
       id="mask8_5101_1805"
       maskUnits="userSpaceOnUse"
       x="0"
       y="747"
       width="1920"
       height="81">
      <path
         d="M 0.139984,747.554 H 1919.85 v 80.332 H 0.139984 Z"
         fill="#ffffff"
         id="path17" />
    </mask>
    <g
       mask="url(#mask8_5101_1805)"
       id="g18">
      <path
         d="M 1919.78,827.82 H 0.139984 V 747.558 H 1919.78 Z"
         fill="#8cc63f"
         id="path18" />
    </g>
    <mask
       id="mask9_5101_1805"
       maskUnits="userSpaceOnUse"
       x="0"
       y="787"
       width="1920"
       height="93">
      <path
         d="M 0.139984,787.644 H 1919.85 v 91.384 H 0.139984 Z"
         fill="#ffffff"
         id="path19" />
    </mask>
    <g
       mask="url(#mask9_5101_1805)"
       id="g20">
      <path
         d="M 1919.79,878.951 H 0.139984 L 1.95187,787.687 H 1919.85 Z"
         fill="#69952f"
         id="path20" />
    </g>
    <mask
       id="mask10_5101_1805"
       maskUnits="userSpaceOnUse"
       x="0"
       y="846"
       width="1920"
       height="218">
      <path
         d="M 0.139984,846.855 H 1919.85 V 1063.6 H 0.139984 Z"
         fill="#ffffff"
         id="path21" />
    </mask>
    <g
       mask="url(#mask10_5101_1805)"
       id="g22">
      <path
         d="M 1919.78,1063.27 H 0.139984 V 846.888 H 1919.78 Z"
         fill="#5f3d0a"
         id="path22" />
    </g>
    <mask
       id="mask11_5101_1805"
       maskUnits="userSpaceOnUse"
       x="0"
       y="979"
       width="1920"
       height="36">
      <path
         d="M 0.139984,979.611 H 1919.85 v 34.879 H 0.139984 Z"
         fill="#ffffff"
         id="path23" />
    </mask>
    <g
       mask="url(#mask11_5101_1805)"
       id="g24">
      <path
         d="M 1919.78,1014.41 H 0.139984 V 979.884 H 1919.78 Z"
         fill="#472e08"
         id="path24" />
    </g>
    <mask
       id="mask12_5101_1805"
       maskUnits="userSpaceOnUse"
       x="0"
       y="896"
       width="1920"
       height="46">
      <path
         d="M 0.139984,896.297 H 1919.85 v 45.044 H 0.139984 Z"
         fill="#ffffff"
         id="path25" />
    </mask>
    <g
       mask="url(#mask12_5101_1805)"
       id="g26">
      <path
         d="M 1919.82,941.294 H 0.169983 V 896.623 H 1919.82 Z"
         fill="#472e08"
         id="path26" />
    </g>
    <path
       d="m 465.615,996.777 c 0,3.513 -16.154,6.353 -36.078,6.353 -19.927,0 -36.081,-2.84 -36.081,-6.353 0,-3.505 16.154,-6.351 36.081,-6.351 19.924,0 36.078,2.846 36.078,6.351 z"
       fill="#352306"
       id="path27" />
    <path
       d="m 419.093,998.556 c 0,0 -12.259,-28.554 -35.424,-36.774 -23.16,-8.22 21.8,-0.673 30.656,10.862 8.856,11.535 -1.362,-31.17 -10.218,-36.011 -8.855,-4.842 13.625,0.746 21.116,30.27 7.494,29.52 15.669,4.348 14.989,-11.299 -0.681,-15.649 5.449,-11.568 6.813,-2.722 1.362,8.846 -10.22,45.674 -10.22,45.674 z"
       fill="#006837"
       id="path28" />
    <path
       d="m 465.615,996.777 c 0,3.513 -16.154,6.353 -36.078,6.353 -19.927,0 -36.081,-2.84 -36.081,-6.353 0,-3.505 16.154,-6.351 36.081,-6.351 19.924,0 36.078,2.846 36.078,6.351 z"
       fill="#352306"
       id="path29" />
    <path
       d="m 419.093,998.556 c 0,0 -12.259,-28.554 -35.424,-36.774 -23.16,-8.22 21.8,-0.673 30.656,10.862 8.856,11.535 -1.362,-31.17 -10.218,-36.011 -8.855,-4.842 13.625,0.746 21.116,30.27 7.494,29.52 15.669,4.348 14.989,-11.299 -0.681,-15.649 5.449,-11.568 6.813,-2.722 1.362,8.846 -10.22,45.674 -10.22,45.674 z"
       fill="#006837"
       id="path30" />
    <path
       d="m 421.002,983.622 c 0,0 -5.439,-26.445 -42.912,-25.299 0,0 28.003,4.435 42.912,25.299 z"
       fill="#39b54a"
       id="path31" />
    <path
       d="m 429.177,981.58 c 0,0 -0.681,-39.459 -26.564,-46.493 0,0 17.595,5.901 26.564,46.493 z"
       fill="#39b54a"
       id="path32" />
    <path
       d="m 434.399,984.759 c 0,0 9.767,-15.624 11.125,-29.018 1.365,-13.394 -3.524,-10.459 -3.524,-10.459 0,0 0.12,22.691 -7.601,39.477 z"
       fill="#39b54a"
       id="path33" />
    <path
       d="m 667.315,996.777 c 0,3.513 -16.15,6.353 -36.074,6.353 -19.928,0 -36.081,-2.84 -36.081,-6.353 0,-3.505 16.153,-6.351 36.081,-6.351 19.924,0 36.074,2.846 36.074,6.351 z"
       fill="#352306"
       id="path34" />
    <path
       d="m 620.796,998.556 c 0,0 -12.259,-28.554 -35.423,-36.774 -23.161,-8.22 21.803,-0.673 30.655,10.862 8.856,11.535 -1.361,-31.17 -10.217,-36.011 -8.859,-4.842 13.624,0.746 21.118,30.27 7.492,29.52 15.667,4.348 14.986,-11.299 -0.681,-15.649 5.449,-11.568 6.81,-2.722 1.362,8.846 -10.217,45.674 -10.217,45.674 z"
       fill="#006837"
       id="path35" />
    <path
       d="m 622.708,983.622 c 0,0 -5.439,-26.445 -42.911,-25.299 0,0 27.999,4.435 42.911,25.299 z"
       fill="#39b54a"
       id="path36" />
    <path
       d="m 630.88,981.58 c 0,0 -0.681,-39.459 -26.568,-46.493 0,0 17.595,5.901 26.568,46.493 z"
       fill="#39b54a"
       id="path37" />
    <path
       d="m 636.102,984.759 c 0,0 9.764,-15.624 11.122,-29.018 1.365,-13.394 -3.521,-10.459 -3.521,-10.459 0,0 0.121,22.691 -7.601,39.477 z"
       fill="#39b54a"
       id="path38" />
    <path
       d="m 879.826,996.777 c 0,3.513 -16.153,6.353 -36.077,6.353 -19.924,0 -36.078,-2.84 -36.078,-6.353 0,-3.505 16.154,-6.351 36.078,-6.351 19.924,0 36.077,2.846 36.077,6.351 z"
       fill="#352306"
       id="path39" />
    <path
       d="m 833.307,998.556 c 0,0 -12.266,-28.554 -35.426,-36.774 -23.158,-8.22 21.799,-0.673 30.658,10.862 8.856,11.535 -1.365,-31.17 -10.217,-36.011 -8.859,-4.842 13.624,0.746 21.112,30.27 7.498,29.52 15.673,4.348 14.989,-11.299 -0.684,-15.649 5.449,-11.568 6.81,-2.722 1.365,8.846 -10.217,45.674 -10.217,45.674 z"
       fill="#006837"
       id="path40" />
    <path
       d="m 835.216,983.622 c 0,0 -5.442,-26.445 -42.911,-25.299 0,0 27.999,4.435 42.911,25.299 z"
       fill="#39b54a"
       id="path41" />
    <path
       d="m 843.388,981.58 c 0,0 -0.684,-39.459 -26.568,-46.493 0,0 17.595,5.901 26.568,46.493 z"
       fill="#39b54a"
       id="path42" />
    <path
       d="m 848.607,984.759 c 0,0 9.767,-15.624 11.132,-29.018 1.361,-13.394 -3.531,-10.459 -3.531,-10.459 0,0 0.124,22.691 -7.601,39.477 z"
       fill="#39b54a"
       id="path43" />
    <path
       d="m 1081.53,996.777 c 0,3.513 -16.15,6.353 -36.08,6.353 -19.93,0 -36.08,-2.84 -36.08,-6.353 0,-3.505 16.15,-6.351 36.08,-6.351 19.93,0 36.08,2.846 36.08,6.351 z"
       fill="#352306"
       id="path44" />
    <path
       d="m 1035.01,998.556 c 0,0 -12.26,-28.554 -35.426,-36.774 -23.157,-8.22 21.796,-0.673 30.656,10.862 8.86,11.535 -1.36,-31.17 -10.22,-36.011 -8.85,-4.842 13.62,0.746 21.12,30.27 7.5,29.52 15.67,4.348 14.99,-11.299 -0.69,-15.649 5.44,-11.568 6.81,-2.722 1.36,8.846 -10.22,45.674 -10.22,45.674 z"
       fill="#006837"
       id="path45" />
    <path
       d="m 1036.92,983.622 c 0,0 -5.44,-26.445 -42.912,-25.299 0,0 28.002,4.435 42.912,25.299 z"
       fill="#39b54a"
       id="path46" />
    <path
       d="m 1045.09,981.58 c 0,0 -0.68,-39.459 -26.57,-46.493 0,0 17.6,5.901 26.57,46.493 z"
       fill="#39b54a"
       id="path47" />
    <path
       d="m 1050.31,984.759 c 0,0 9.77,-15.624 11.13,-29.018 1.37,-13.394 -3.52,-10.459 -3.52,-10.459 0,0 0.12,22.691 -7.61,39.477 z"
       fill="#39b54a"
       id="path48" />
    <path
       d="m 1279.39,996.777 c 0,3.513 -16.15,6.353 -36.08,6.353 -19.92,0 -36.07,-2.84 -36.07,-6.353 0,-3.505 16.15,-6.351 36.07,-6.351 19.93,0 36.08,2.846 36.08,6.351 z"
       fill="#352306"
       id="path49" />
    <path
       d="m 1232.88,998.556 c 0,0 -12.27,-28.554 -35.43,-36.774 -23.16,-8.22 21.8,-0.673 30.66,10.862 8.85,11.535 -1.37,-31.17 -10.22,-36.011 -8.86,-4.842 13.63,0.746 21.11,30.27 7.49,29.52 15.67,4.348 14.99,-11.299 -0.68,-15.649 5.45,-11.568 6.81,-2.722 1.36,8.846 -10.22,45.674 -10.22,45.674 z"
       fill="#006837"
       id="path50" />
    <path
       d="m 1234.79,983.623 c 0,0 -5.44,-26.446 -42.92,-25.303 0,0 28.01,4.438 42.92,25.303 z"
       fill="#39b54a"
       id="path51" />
    <path
       d="m 1242.96,981.58 c 0,0 -0.68,-39.459 -26.56,-46.493 0,0 17.59,5.901 26.56,46.493 z"
       fill="#39b54a"
       id="path52" />
    <path
       d="m 1248.18,984.759 c 0,0 9.77,-15.624 11.13,-29.018 1.36,-13.394 -3.53,-10.459 -3.53,-10.459 0,0 0.12,22.691 -7.6,39.477 z"
       fill="#39b54a"
       id="path53" />
    <path
       d="m 210.452,996.777 c 0,3.513 -16.15,6.353 -36.077,6.353 -19.924,0 -36.078,-2.84 -36.078,-6.353 0,-3.505 16.154,-6.351 36.078,-6.351 19.927,0 36.077,2.846 36.077,6.351 z"
       fill="#352306"
       id="path54" />
    <path
       d="m 163.934,998.556 c 0,0 -12.263,-28.554 -35.424,-36.774 -23.16,-8.22 21.8,-0.673 30.656,10.862 8.856,11.535 -1.365,-31.17 -10.221,-36.011 -8.852,-4.842 13.624,0.746 21.119,30.27 7.494,29.52 15.666,4.348 14.985,-11.299 -0.68,-15.649 5.449,-11.568 6.814,-2.722 1.362,8.846 -10.217,45.674 -10.217,45.674 z"
       fill="#006837"
       id="path55" />
    <path
       d="m 165.843,983.622 c 0,0 -5.439,-26.445 -42.912,-25.299 0,0 27.999,4.435 42.912,25.299 z"
       fill="#39b54a"
       id="path56" />
    <path
       d="m 174.018,981.58 c 0,0 -0.681,-39.459 -26.568,-46.493 0,0 17.598,5.901 26.568,46.493 z"
       fill="#39b54a"
       id="path57" />
    <path
       d="m 179.24,984.759 c 0,0 9.763,-15.624 11.125,-29.018 1.365,-13.394 -3.524,-10.459 -3.524,-10.459 0,0 0.12,22.691 -7.601,39.477 z"
       fill="#39b54a"
       id="path58" />
    <path
       d="m 1507.98,996.777 c 0,3.513 -16.15,6.353 -36.08,6.353 -19.93,0 -36.08,-2.84 -36.08,-6.353 0,-3.505 16.15,-6.351 36.08,-6.351 19.93,0 36.08,2.846 36.08,6.351 z"
       fill="#352306"
       id="path59" />
    <path
       d="m 1461.46,998.556 c 0,0 -12.27,-28.554 -35.43,-36.774 -23.16,-8.22 21.8,-0.673 30.66,10.862 8.85,11.535 -1.37,-31.17 -10.22,-36.011 -8.85,-4.842 13.62,0.746 21.12,30.27 7.49,29.52 15.66,4.348 14.98,-11.299 -0.68,-15.649 5.45,-11.568 6.82,-2.722 1.36,8.846 -10.22,45.674 -10.22,45.674 z"
       fill="#006837"
       id="path60" />
    <path
       d="m 1463.37,983.622 c 0,0 -5.44,-26.445 -42.92,-25.299 0,0 28,4.435 42.92,25.299 z"
       fill="#39b54a"
       id="path61" />
    <path
       d="m 1471.54,981.58 c 0,0 -0.68,-39.459 -26.57,-46.493 0,0 17.6,5.901 26.57,46.493 z"
       fill="#39b54a"
       id="path62" />
    <path
       d="m 1476.76,984.759 c 0,0 9.77,-15.624 11.13,-29.018 1.36,-13.394 -3.53,-10.459 -3.53,-10.459 0,0 0.12,22.691 -7.6,39.477 z"
       fill="#39b54a"
       id="path63" />
    <path
       d="m 1757.24,996.777 c 0,3.513 -16.15,6.353 -36.08,6.353 -19.93,0 -36.08,-2.84 -36.08,-6.353 0,-3.505 16.15,-6.351 36.08,-6.351 19.93,0 36.08,2.846 36.08,6.351 z"
       fill="#352306"
       id="path64" />
    <path
       d="m 1710.72,998.556 c 0,0 -12.27,-28.554 -35.43,-36.774 -23.16,-8.22 21.8,-0.673 30.66,10.862 8.85,11.535 -1.37,-31.17 -10.22,-36.011 -8.85,-4.842 13.62,0.746 21.12,30.27 7.49,29.52 15.66,4.348 14.98,-11.299 -0.68,-15.649 5.45,-11.568 6.82,-2.722 1.36,8.846 -10.22,45.674 -10.22,45.674 z"
       fill="#006837"
       id="path65" />
    <path
       d="m 1712.63,983.622 c 0,0 -5.44,-26.445 -42.92,-25.299 0,0 28,4.435 42.92,25.299 z"
       fill="#39b54a"
       id="path66" />
    <path
       d="m 1720.8,981.58 c 0,0 -0.68,-39.459 -26.57,-46.493 0,0 17.6,5.901 26.57,46.493 z"
       fill="#39b54a"
       id="path67" />
    <path
       d="m 1726.02,984.759 c 0,0 9.77,-15.624 11.13,-29.018 1.36,-13.394 -3.53,-10.459 -3.53,-10.459 0,0 0.12,22.691 -7.6,39.477 z"
       fill="#39b54a"
       id="path68" />
  </g>
  <defs
     id="defs68">
    <clipPath
       id="clip0_5101_1805">
      <rect
         width="1921"
         height="1063"
         fill="#ffffff"
         id="rect68"
         x="0"
         y="0" />
    </clipPath>
  </defs>
</svg>
