<svg width="51" height="51" viewBox="0 0 51 51" fill="none" xmlns="http://www.w3.org/2000/svg">
<g clip-path="url(#clip0_5165_543)">
<path d="M35.5049 24.4703V1.44116H15.3068V24.4703V25.2203H14.5568H4.62396C3.08606 25.2842 2.17433 25.7358 1.67973 26.4169L1.67974 26.4169L1.67689 26.4208C1.01273 27.3232 1.03747 28.206 1.43492 29.0971C1.85306 30.0346 2.67561 30.9389 3.53329 31.7005L3.03532 32.2613L3.53329 31.7005L22.7128 48.7307L22.7297 48.7456L22.7456 48.7616C24.3159 50.3344 26.4958 50.3344 28.0662 48.7616L28.0825 48.7452L28.0999 48.7298L46.8063 32.1772L46.8064 32.1771C47.733 31.3573 48.7135 30.3737 49.2522 29.3364C49.5168 28.8267 49.6573 28.3364 49.6537 27.8688C49.6503 27.4124 49.51 26.9304 49.1349 26.4208L49.132 26.4169C48.6375 25.7358 47.7258 25.2842 46.1867 25.2203H36.2549H35.5049V24.4703Z" stroke="black" stroke-width="1.5"/>
</g>
<defs>
<clipPath id="clip0_5165_543">
<rect width="50" height="50" fill="white" transform="matrix(1 0 0 -1 0.403809 50.6912)"/>
</clipPath>
</defs>
</svg>
