<svg width="300" height="54" viewBox="0 0 300 54" fill="none" xmlns="http://www.w3.org/2000/svg">
<path d="M84.7763 17.6751C85.5333 17.9138 86.161 18.3222 86.6588 18.9004C87.1579 19.4792 87.408 20.406 87.408 21.682C87.408 22.958 87.0286 24.3542 86.2698 25.87C85.5121 27.3847 84.4162 28.1417 82.9807 28.1417C82.2635 28.1417 81.5754 27.9822 80.9168 27.6632C80.2595 27.3442 79.3925 27.1847 78.3165 27.1847C77.2399 27.1847 76.2333 27.5641 75.2957 28.323C74.358 29.0806 73.8892 29.9971 73.8892 31.0731V43.635C73.8892 44.5521 73.859 45.2396 73.7998 45.6988C73.74 46.1568 73.5508 46.6842 73.2318 47.2817C72.6337 48.3197 71.0786 48.838 68.5653 48.838C66.6513 48.838 65.2762 48.4991 64.44 47.8206C63.802 47.2636 63.4425 46.4063 63.3622 45.2493C63.3622 44.8499 63.3622 44.2718 63.3622 43.5141V22.5205C63.3622 21.6022 63.3918 20.9147 63.4516 20.4567C63.5108 19.9975 63.6812 19.4888 63.9615 18.9294C64.5186 17.8534 66.0737 17.315 68.6257 17.315C71.0182 17.315 72.5129 17.7736 73.111 18.6901C73.5508 19.3299 73.7708 19.9879 73.7708 20.6645C73.9689 20.386 74.2571 20.0477 74.6359 19.6495C75.016 19.2502 75.8237 18.7113 77.0598 18.0328C78.2954 17.3549 79.3823 17.0154 80.3199 17.0154C81.2576 17.0154 82.0454 17.0655 82.6834 17.1652C83.3214 17.2655 84.0186 17.4353 84.7763 17.6751Z" fill="#FFD700"/>
<path d="M90.6981 22.5784C90.6981 21.6619 90.7277 20.975 90.7875 20.517C90.8467 20.0579 91.0171 19.5286 91.2974 18.9293C91.8544 17.8937 93.4096 17.3754 95.9616 17.3754C97.8756 17.3754 99.2313 17.7149 100.029 18.3928C100.707 18.9504 101.066 19.8077 101.107 20.9641C101.145 21.3641 101.165 21.9423 101.165 22.6993V43.6349C101.165 44.552 101.134 45.2395 101.075 45.6987C101.015 46.1566 100.826 46.6841 100.507 47.2816C99.9883 48.3196 98.4531 48.8379 95.9011 48.8379C93.389 48.8379 91.8544 48.3002 91.2974 47.2236C91.0171 46.6243 90.8467 46.1059 90.7875 45.6673C90.7277 45.2293 90.6981 44.5314 90.6981 43.5744V22.5784ZM100.536 11.4835C100.238 12.0623 99.7098 12.4713 98.951 12.7112C98.1934 12.9498 97.1868 13.0689 95.9301 13.0689C94.6747 13.0689 93.6687 12.9498 92.9117 12.7112C92.1541 12.4713 91.6261 12.0526 91.3264 11.4545C91.0267 10.8552 90.8467 10.3271 90.7875 9.86919C90.7277 9.41002 90.6981 8.72248 90.6981 7.80535C90.6981 6.88883 90.7277 6.20069 90.7875 5.74152C90.8467 5.28235 91.0171 4.77425 91.2974 4.2166C91.8544 3.13877 93.4096 2.59985 95.9616 2.59985C98.4731 2.59985 99.9883 3.13877 100.507 4.2166C100.826 4.81473 101.015 5.34277 101.075 5.80194C101.134 6.2599 101.165 6.94744 101.165 7.86577C101.165 8.7829 101.134 9.47044 101.075 9.9296C101.015 10.3876 100.836 10.9053 100.536 11.4835Z" fill="#FFD700"/>
<path d="M115.821 33.0764C115.821 34.7717 116.379 36.0876 117.496 37.0253C118.612 37.9617 119.797 38.4294 121.053 38.4294C122.31 38.4294 123.486 38.0614 124.584 37.3249C125.681 36.5873 126.568 36.2181 127.244 36.2181C128.441 36.2181 129.897 37.2742 131.611 39.3864C132.528 40.5433 132.986 41.5801 132.986 42.4966C132.986 44.0131 131.89 45.4292 129.697 46.7451C127.424 48.3401 124.633 49.1376 121.324 49.1376C117.615 49.1376 114.046 47.8012 110.618 45.1284C108.982 43.8524 107.646 42.148 106.608 40.0147C105.572 37.882 105.055 35.5294 105.055 32.958C105.055 30.3855 105.572 28.0522 106.608 25.9594C107.646 23.8653 108.982 22.1797 110.618 20.9037C113.927 18.2732 117.456 16.9573 121.205 16.9573C122.719 16.9573 124.195 17.1669 125.63 17.5856C127.066 18.0031 128.122 18.4115 128.801 18.8109L129.758 19.4102C130.474 19.8887 131.032 20.2675 131.432 20.546C132.468 21.3435 132.986 22.251 132.986 23.2672C132.986 24.284 132.568 25.4301 131.732 26.7061C130.297 28.8992 128.92 29.9952 127.604 29.9952C126.847 29.9952 125.77 29.5572 124.373 28.6805C123.656 28.0027 122.63 27.6631 121.295 27.6631C119.959 27.6631 118.712 28.1416 117.556 29.0986C116.399 30.0556 115.821 31.3818 115.821 33.0764Z" fill="#FFD700"/>
<path d="M167.263 29.309C167.263 31.7613 166.655 33.5756 165.438 34.7513C164.222 35.9276 162.876 36.5155 161.4 36.5155H147.224C147.224 37.632 147.882 38.5696 149.198 39.3285C150.514 40.0861 151.83 40.4643 153.145 40.4643C155.458 40.4643 157.273 40.225 158.59 39.7465L159.247 39.5073C160.204 39.0693 161.001 38.85 161.639 38.85C162.915 38.85 164.011 39.7465 164.929 41.5397C165.447 42.6175 165.707 43.5353 165.707 44.2923C165.707 47.8418 161.459 49.6162 152.966 49.6162C150.014 49.6162 147.392 49.1075 145.1 48.0913C142.807 47.0733 141.023 45.7272 139.747 44.053C137.235 40.8232 135.979 37.2139 135.979 33.2264C135.979 28.2015 137.604 24.1844 140.854 21.1745C144.103 18.1633 148.161 16.6577 153.026 16.6577C158.568 16.6577 162.636 18.6122 165.228 22.5205C166.585 24.594 167.263 26.8573 167.263 29.309ZM154.641 31.0731C156.157 31.0731 156.915 30.4351 156.915 29.1591C156.915 28.2426 156.565 27.5055 155.866 26.9479C155.168 26.389 154.172 26.1093 152.877 26.1093C151.581 26.1093 150.294 26.6379 149.017 27.6946C147.741 28.7501 147.103 29.8763 147.103 31.0731H154.641Z" fill="#FFD700"/>
<path d="M189.573 17.3754C192.324 17.3754 193.94 18.1336 194.418 19.6494C194.658 20.4071 194.778 21.4033 194.778 22.6389C194.778 23.875 194.648 24.8616 194.389 25.5993C194.129 26.3376 193.72 26.8656 193.161 27.1846C192.325 27.6631 191.11 27.9024 189.515 27.9024L185.687 27.6631V43.6929C185.687 45.2093 185.496 46.3361 185.116 47.0738C184.738 47.8121 184.159 48.3008 183.381 48.5407C182.604 48.7793 181.598 48.8984 180.36 48.8984C179.124 48.8984 178.138 48.7691 177.4 48.5093C176.663 48.2501 176.136 47.8314 175.817 47.2526C175.498 46.6744 175.308 46.1458 175.247 45.6673C175.187 45.1888 175.157 44.4916 175.157 43.5744V27.7235H173.004C171.968 27.6432 171.231 27.4039 170.793 27.0058C170.034 26.2488 169.655 24.7933 169.655 22.6389C169.655 19.3685 170.831 17.733 173.185 17.733H175.157V14.5648C175.157 11.4944 176.253 8.71282 178.446 6.22003C180.641 3.72784 183.811 2.48145 187.958 2.48145C188.875 2.48145 189.563 2.51165 190.022 2.57086C190.481 2.63067 191.009 2.81978 191.608 3.13878C192.684 3.65776 193.222 5.19295 193.222 7.74495C193.222 9.65895 192.882 11.0352 192.204 11.8726C191.647 12.5106 190.77 12.8695 189.573 12.948C189.215 12.948 188.657 12.948 187.898 12.948C186.424 12.948 185.687 13.4471 185.687 14.4439V17.733L189.573 17.3754Z" fill="#FFD700"/>
<path d="M198.068 22.5784C198.068 21.6619 198.097 20.975 198.157 20.517C198.216 20.0579 198.387 19.5286 198.667 18.9293C199.224 17.8937 200.779 17.3754 203.331 17.3754C205.245 17.3754 206.601 17.7149 207.398 18.3928C208.076 18.9504 208.436 19.8077 208.476 20.9641C208.515 21.3641 208.534 21.9423 208.534 22.6993V43.6349C208.534 44.552 208.504 45.2395 208.445 45.6987C208.385 46.1566 208.196 46.6841 207.877 47.2816C207.358 48.3196 205.823 48.8379 203.271 48.8379C200.759 48.8379 199.224 48.3002 198.667 47.2236C198.387 46.6243 198.216 46.1059 198.157 45.6673C198.097 45.2293 198.068 44.5314 198.068 43.5744V22.5784ZM207.906 11.4835C207.607 12.0623 207.079 12.4713 206.32 12.7112C205.563 12.9498 204.556 13.0689 203.3 13.0689C202.044 13.0689 201.038 12.9498 200.281 12.7112C199.524 12.4713 198.996 12.0526 198.696 11.4545C198.396 10.8552 198.216 10.3271 198.157 9.86919C198.097 9.41002 198.068 8.72248 198.068 7.80535C198.068 6.88883 198.097 6.20069 198.157 5.74152C198.216 5.28235 198.387 4.77425 198.667 4.2166C199.224 3.13877 200.779 2.59985 203.331 2.59985C205.843 2.59985 207.358 3.13877 207.877 4.2166C208.196 4.81473 208.385 5.34277 208.445 5.80194C208.504 6.2599 208.534 6.94744 208.534 7.86577C208.534 8.7829 208.504 9.47044 208.445 9.9296C208.385 10.3876 208.205 10.9053 207.906 11.4835Z" fill="#FFD700"/>
<path d="M243.708 29.309C243.708 31.7613 243.099 33.5756 241.883 34.7513C240.666 35.9276 239.32 36.5155 237.845 36.5155H223.669C223.669 37.632 224.327 38.5696 225.643 39.3285C226.959 40.0861 228.275 40.4643 229.59 40.4643C231.903 40.4643 233.718 40.225 235.034 39.7465L235.692 39.5073C236.649 39.0693 237.446 38.85 238.084 38.85C239.36 38.85 240.456 39.7465 241.373 41.5397C241.892 42.6175 242.151 43.5353 242.151 44.2923C242.151 47.8418 237.904 49.6162 229.411 49.6162C226.459 49.6162 223.837 49.1075 221.545 48.0913C219.252 47.0733 217.468 45.7272 216.192 44.053C213.68 40.8232 212.424 37.2139 212.424 33.2264C212.424 28.2015 214.049 24.1844 217.298 21.1745C220.548 18.1633 224.605 16.6577 229.471 16.6577C235.013 16.6577 239.081 18.6122 241.673 22.5205C243.029 24.594 243.708 26.8573 243.708 29.309ZM231.086 31.0731C232.601 31.0731 233.36 30.4351 233.36 29.1591C233.36 28.2426 233.01 27.5055 232.311 26.9479C231.613 26.389 230.617 26.1093 229.321 26.1093C228.026 26.1093 226.739 26.6379 225.462 27.6946C224.186 28.7501 223.548 29.8763 223.548 31.0731H231.086Z" fill="#FFD700"/>
<path d="M247.595 7.74495C247.595 6.82842 247.625 6.14149 247.685 5.68353C247.744 5.22436 247.914 4.69511 248.194 4.09578C248.751 3.01976 250.307 2.48145 252.859 2.48145C255.291 2.48145 256.806 3.01976 257.404 4.09578C257.723 4.69511 257.912 5.23403 257.972 5.71253C258.031 6.19103 258.062 6.88884 258.062 7.80536V35.5004C258.062 36.9359 258.181 37.8433 258.419 38.2215C258.659 38.6003 259.188 38.7894 260.005 38.7894C260.823 38.7894 261.371 38.8197 261.65 38.8789C261.931 38.9387 262.27 39.1078 262.668 39.3864C263.465 39.9053 263.864 41.3215 263.864 43.6349C263.864 46.147 263.465 47.6816 262.668 48.2386C261.632 48.957 259.159 49.0772 255.251 48.5987C252.18 48.1993 250.186 47.1825 249.27 45.5489C248.153 43.595 247.595 40.4847 247.595 36.2181V7.74495Z" fill="#FFD700"/>
<path d="M288.298 4.18519C288.598 3.607 289.126 3.19858 289.884 2.95994C290.642 2.72008 291.649 2.59985 292.904 2.59985C294.161 2.59985 295.168 2.72008 295.925 2.95994C296.684 3.19858 297.212 3.61727 297.511 4.2166C297.81 4.81473 297.99 5.34277 298.05 5.80194C298.109 6.2599 298.139 6.94744 298.139 7.86577V43.5744C298.139 44.4916 298.109 45.1791 298.05 45.6383C297.99 46.0962 297.801 46.6043 297.482 47.1632C296.884 48.2398 295.199 48.7775 292.426 48.7775C289.655 48.7775 288.11 47.8006 287.791 45.8461C286.117 47.7601 283.784 48.7171 280.792 48.7171C277.204 48.7171 273.934 47.1529 270.983 44.0239C268.033 40.8938 266.558 37.2452 266.558 33.0789C266.558 28.9113 268.042 25.2525 271.012 22.1024C273.983 18.951 277.243 17.3754 280.792 17.3754C283.744 17.3754 286.037 18.3728 287.672 20.3672V7.80535C287.672 6.88883 287.702 6.20069 287.762 5.74152C287.821 5.28235 288 4.76398 288.298 4.18519ZM278.578 36.6966C279.616 37.7732 280.873 38.3109 282.348 38.3109C283.824 38.3109 285.05 37.7732 286.027 36.6966C287.003 35.6188 287.491 34.4322 287.491 33.1369C287.491 31.8403 287.022 30.6332 286.085 29.5167C285.148 28.4002 283.883 27.8419 282.288 27.8419C280.693 27.8419 279.417 28.3905 278.46 29.4877C277.503 30.5849 277.025 31.792 277.025 33.1079C277.025 34.4225 277.542 35.6188 278.578 36.6966Z" fill="#FFD700"/>
<mask id="mask0_5197_1292" style="mask-type:luminance" maskUnits="userSpaceOnUse" x="0" y="7" width="53" height="45">
<path d="M0.530945 7.0481H52.3443V51.4374H0.530945V7.0481Z" fill="white"/>
</mask>
<g mask="url(#mask0_5197_1292)">
<mask id="mask1_5197_1292" style="mask-type:luminance" maskUnits="userSpaceOnUse" x="-7" y="-2" width="65" height="61">
<path d="M8.20026 -1.38477L57.8609 15.744L43.0873 58.5764L-6.57343 41.447L8.20026 -1.38477Z" fill="white"/>
</mask>
<g mask="url(#mask1_5197_1292)">
<mask id="mask2_5197_1292" style="mask-type:luminance" maskUnits="userSpaceOnUse" x="-7" y="-2" width="65" height="61">
<path d="M8.20026 -1.38477L57.8609 15.744L43.0873 58.5764L-6.57343 41.447L8.20026 -1.38477Z" fill="white"/>
</mask>
<g mask="url(#mask2_5197_1292)">
<path fill-rule="evenodd" clip-rule="evenodd" d="M24.2602 32.9138C15.4297 29.8682 7.04327 25.6372 3.09565 20.2275C3.12163 20.1393 3.01227 20.126 2.98448 20.2819C1.96707 26.7368 2.79417 32.1979 5.50446 36.9387C8.06432 41.4174 12.3557 45.9904 18.8813 48.2397C25.2885 50.4491 31.5404 49.561 36.3798 47.5884C41.4343 45.5276 45.3807 41.7836 48.6039 36.1098C42.2934 37.6873 33.0708 35.9527 24.2602 32.9138ZM47.8849 30.3829C48.9652 31.169 49.3295 32.3042 49.4914 33.5367C51.3372 31.465 49.512 29.1396 48.074 28.2188C48.1979 28.849 48.1695 29.5528 47.8849 30.3829ZM3.96625 16.6279C3.66115 17.6997 4.32392 18.5527 4.88217 19.3581C5.52863 17.3764 6.89344 16.872 8.46246 16.7856C8.78569 15.5573 9.80432 15.0033 10.1004 14.1925C8.28544 14.5586 4.61513 14.3514 3.96625 16.6279ZM38.5687 13.2385C37.97 12.9431 37.1646 13.1007 36.5194 12.7177C36.0687 12.4507 36.0082 11.7637 35.7007 11.3209C34.3117 9.31927 32.0648 8.59004 29.8077 9.28846C29.1981 9.47696 28.7335 9.94337 28.2193 9.85456C27.3306 9.70231 27.1499 9.15977 26.2848 9.00148C25.0166 8.77069 23.3878 9.58571 22.7184 10.1869C22.1891 10.6623 22.0961 11.3166 21.4279 11.5057C20.5887 11.7432 19.7157 11.2744 19.0408 11.4254C18.1062 11.6344 16.8042 12.612 16.2731 13.2566C15.8853 13.7279 15.8532 14.4154 15.3143 14.6903C14.6975 15.0063 13.6305 14.4734 12.9273 14.61C11.841 14.8214 11.0561 15.7675 10.4061 16.8055C10.1281 17.2477 9.99886 18.0616 9.47263 18.4331C8.81409 18.9001 7.58219 18.3528 6.93936 19.0464C6.43669 19.5883 6.49167 20.3356 6.28142 20.9543C13.7646 28.3396 31.1332 34.5837 42.5647 34.7698C43.8962 34.7915 46.8162 34.8949 47.401 34.2091C48.6075 32.7948 46.3334 31.926 46.102 30.9744C45.9546 30.366 46.3123 29.7335 46.3721 29.1184C46.473 28.0611 46.3667 26.8516 45.9015 26.1695C45.5365 25.6342 43.9941 25.1805 43.7277 24.3981C43.5537 23.8894 43.9234 23.3311 43.9101 22.7898C43.8648 20.9078 42.8341 19.1309 40.8488 18.2041C40.7727 16.3028 40.2646 14.0765 38.5687 13.2385ZM45.6254 23.4737C47.2639 24.7322 48.7259 25.7103 50.0001 27.2117C51.052 28.4508 52.5449 30.3678 52.3099 32.0945C52.1782 33.0624 51.6253 33.9379 51.1426 34.942C49.7675 37.7973 48.4547 40.3408 46.734 42.337C44.4146 45.0303 41.74 46.9365 38.9807 48.3931C33.3414 51.3656 26.1658 52.6102 18.3086 49.8999C10.3583 47.1576 5.54917 41.7485 2.96092 35.9691C0.730941 30.9919 -0.408518 25.2475 1.70546 17.7975C2.01177 16.7179 2.27338 15.4896 2.73557 14.8099C3.28596 14.0016 4.6973 13.2506 5.61502 12.9237C8.14286 12.0241 11.4887 12.2519 14.5047 12.4609C16.3088 11.014 17.9183 9.16762 20.6697 9.66546C22.1329 8.53869 23.7002 6.9171 26.1645 7.19623C26.8388 7.27235 27.5112 7.75025 28.2677 7.82819C29.0809 7.91337 30.549 7.14487 31.4963 7.08446C34.3848 6.902 36.5695 9.08062 37.7307 11.0925C41.4161 12.0809 42.2154 14.477 42.526 17.1112C44.9541 18.5527 45.5619 20.8806 45.6254 23.4737Z" fill="#448D57"/>
</g>
</g>
</g>
<mask id="mask3_5197_1292" style="mask-type:luminance" maskUnits="userSpaceOnUse" x="6" y="8" width="42" height="27">
<path d="M6.25366 8.90405H47.859V34.8881H6.25366V8.90405Z" fill="white"/>
</mask>
<g mask="url(#mask3_5197_1292)">
<mask id="mask4_5197_1292" style="mask-type:luminance" maskUnits="userSpaceOnUse" x="-7" y="-2" width="65" height="61">
<path d="M8.20026 -1.38501L57.8609 15.7437L43.0873 58.5761L-6.57343 41.4468L8.20026 -1.38501Z" fill="white"/>
</mask>
<g mask="url(#mask4_5197_1292)">
<mask id="mask5_5197_1292" style="mask-type:luminance" maskUnits="userSpaceOnUse" x="-7" y="-2" width="65" height="61">
<path d="M8.20026 -1.38501L57.8609 15.7437L43.0873 58.5761L-6.57343 41.4468L8.20026 -1.38501Z" fill="white"/>
</mask>
<g mask="url(#mask5_5197_1292)">
<path fill-rule="evenodd" clip-rule="evenodd" d="M40.8488 18.2039C42.8347 19.1307 43.8654 20.9076 43.9101 22.7896C43.9234 23.3309 43.5537 23.8891 43.7277 24.3979C43.9947 25.1802 45.5366 25.634 45.9015 26.1693C46.3673 26.8514 46.473 28.0615 46.3721 29.1182C46.3129 29.7332 45.9546 30.3658 46.1027 30.9742C46.3335 31.9258 48.6075 32.7946 47.401 34.2089C46.8168 34.8946 43.8969 34.7919 42.5647 34.7696C31.1332 34.5835 13.7652 28.3394 6.28143 20.9541C6.49168 20.3354 6.4367 19.5881 6.93937 19.0461C7.5822 18.3526 8.8141 18.8999 9.47264 18.4329C9.99887 18.0614 10.1282 17.2475 10.4061 16.8053C11.0562 15.7673 11.841 14.8212 12.9273 14.6097C13.6305 14.4732 14.6975 15.0061 15.3143 14.6901C15.8532 14.4152 15.8853 13.7277 16.2731 13.2564C16.8036 12.6118 18.1062 11.6342 19.0408 11.4252C19.7157 11.2741 20.5887 11.743 21.4279 11.5055C22.0961 11.3164 22.1891 10.6621 22.7184 10.1866C23.3878 9.5855 25.0166 8.77048 26.2848 9.00127C27.15 9.15956 27.3306 9.7021 28.2193 9.85435C28.7335 9.94316 29.1981 9.47675 29.8077 9.28825C32.0648 8.58983 34.3117 9.31906 35.7007 11.3207C36.0082 11.7635 36.0687 12.4505 36.5194 12.7175C37.1646 13.1005 37.97 12.9429 38.5687 13.2383C40.2646 14.0763 40.7733 16.3026 40.8488 18.2039Z" fill="#F9FBEF"/>
</g>
</g>
</g>
<mask id="mask6_5197_1292" style="mask-type:luminance" maskUnits="userSpaceOnUse" x="3" y="14" width="8" height="6">
<path d="M3.77899 14.1626H10.1203V19.4213H3.77899V14.1626Z" fill="white"/>
</mask>
<g mask="url(#mask6_5197_1292)">
<mask id="mask7_5197_1292" style="mask-type:luminance" maskUnits="userSpaceOnUse" x="-7" y="-2" width="65" height="61">
<path d="M8.20026 -1.38501L57.8609 15.7437L43.0873 58.5761L-6.57343 41.4468L8.20026 -1.38501Z" fill="white"/>
</mask>
<g mask="url(#mask7_5197_1292)">
<mask id="mask8_5197_1292" style="mask-type:luminance" maskUnits="userSpaceOnUse" x="-7" y="-2" width="65" height="61">
<path d="M8.20026 -1.38501L57.8609 15.7437L43.0873 58.5761L-6.57343 41.4468L8.20026 -1.38501Z" fill="white"/>
</mask>
<g mask="url(#mask8_5197_1292)">
<path fill-rule="evenodd" clip-rule="evenodd" d="M10.0998 14.1921C9.80375 15.0023 8.78512 15.557 8.4625 16.7852C6.89287 16.8716 5.52806 17.3761 4.8816 19.3578C4.32396 18.5518 3.66119 17.6993 3.96629 16.6275C4.61516 14.351 8.28548 14.5583 10.0998 14.1921Z" fill="#FFD700"/>
</g>
</g>
</g>
<mask id="mask9_5197_1292" style="mask-type:luminance" maskUnits="userSpaceOnUse" x="47" y="28" width="4" height="6">
<path d="M47.8589 28.0828H50.3336V33.6508H47.8589V28.0828Z" fill="white"/>
</mask>
<g mask="url(#mask9_5197_1292)">
<mask id="mask10_5197_1292" style="mask-type:luminance" maskUnits="userSpaceOnUse" x="-7" y="-2" width="65" height="61">
<path d="M8.20026 -1.38477L57.8609 15.744L43.0873 58.5764L-6.57343 41.447L8.20026 -1.38477Z" fill="white"/>
</mask>
<g mask="url(#mask10_5197_1292)">
<mask id="mask11_5197_1292" style="mask-type:luminance" maskUnits="userSpaceOnUse" x="-7" y="-2" width="65" height="61">
<path d="M8.20026 -1.38477L57.8609 15.744L43.0873 58.5764L-6.57343 41.447L8.20026 -1.38477Z" fill="white"/>
</mask>
<g mask="url(#mask11_5197_1292)">
<path fill-rule="evenodd" clip-rule="evenodd" d="M48.0741 28.2188C49.512 29.1395 51.3372 31.4649 49.4914 33.5366C49.3295 32.3041 48.9652 31.1689 47.8849 30.3829C48.1695 29.5527 48.1979 28.8489 48.0741 28.2188Z" fill="#FFD700"/>
</g>
</g>
</g>
<mask id="mask12_5197_1292" style="mask-type:luminance" maskUnits="userSpaceOnUse" x="2" y="20" width="47" height="30">
<path d="M2.54163 20.04H48.6323V49.5814H2.54163V20.04Z" fill="white"/>
</mask>
<g mask="url(#mask12_5197_1292)">
<mask id="mask13_5197_1292" style="mask-type:luminance" maskUnits="userSpaceOnUse" x="-7" y="-2" width="65" height="61">
<path d="M8.20026 -1.38501L57.8609 15.7437L43.0873 58.5761L-6.57343 41.4468L8.20026 -1.38501Z" fill="white"/>
</mask>
<g mask="url(#mask13_5197_1292)">
<mask id="mask14_5197_1292" style="mask-type:luminance" maskUnits="userSpaceOnUse" x="-7" y="-2" width="65" height="61">
<path d="M8.20026 -1.38501L57.8609 15.7437L43.0873 58.5761L-6.57343 41.4468L8.20026 -1.38501Z" fill="white"/>
</mask>
<g mask="url(#mask14_5197_1292)">
<path fill-rule="evenodd" clip-rule="evenodd" d="M48.6039 36.1097C45.3801 41.7834 41.4343 45.5274 36.3792 47.5882C31.5404 49.5609 25.2885 50.449 18.8813 48.2389C12.3557 45.9902 8.06433 41.4173 5.50387 36.9386C2.79418 32.1977 1.96708 26.7366 2.98449 20.2817C3.01229 20.1259 3.12164 20.1391 3.09566 20.2274C7.04268 25.6371 15.4297 29.868 24.2602 32.9136C33.0708 35.9526 42.2934 37.6872 48.6039 36.1097Z" fill="#FFD700"/>
</g>
</g>
</g>
</svg>
