<svg width="300" height="52" viewBox="0 0 300 52" fill="none" xmlns="http://www.w3.org/2000/svg">
<path d="M85.8326 16.6941C86.5906 16.9322 87.2191 17.3398 87.7176 17.9168C88.2173 18.4944 88.4677 19.4194 88.4677 20.6928C88.4677 21.9662 88.0878 23.3596 87.328 24.8724C86.5694 26.3839 85.472 27.1394 84.0347 27.1394C83.3166 27.1394 82.6276 26.9802 81.9682 26.6619C81.31 26.3435 80.4419 26.1844 79.3645 26.1844C78.2865 26.1844 77.2787 26.563 76.3398 27.3203C75.401 28.0764 74.9315 28.991 74.9315 30.0649V42.6012C74.9315 43.5165 74.9013 44.2027 74.842 44.6609C74.7821 45.1179 74.5928 45.6443 74.2733 46.2406C73.6744 47.2764 72.1173 47.7938 69.6008 47.7938C67.6843 47.7938 66.3075 47.4555 65.4702 46.7784C64.8314 46.2225 64.4714 45.3669 64.391 44.2123C64.391 43.8138 64.391 43.2367 64.391 42.4807V21.5296C64.391 20.6132 64.4206 19.927 64.4805 19.47C64.5398 19.0118 64.7104 18.5041 64.9911 17.9458C65.5489 16.8719 67.106 16.3347 69.6613 16.3347C72.0568 16.3347 73.5535 16.7923 74.1524 17.707C74.5928 18.3455 74.813 19.0021 74.813 19.6774C75.0114 19.3995 75.2999 19.0618 75.6792 18.6645C76.0597 18.2659 76.8685 17.7281 78.1063 17.051C79.3434 16.3745 80.4317 16.0356 81.3705 16.0356C82.3094 16.0356 83.0983 16.0857 83.7371 16.1852C84.3759 16.2853 85.074 16.4547 85.8326 16.6941Z" fill="#448D57"/>
<path d="M91.762 21.5875C91.762 20.6728 91.7917 19.9873 91.8516 19.5302C91.9108 19.072 92.0814 18.5438 92.3621 17.9457C92.9199 16.9123 94.477 16.3949 97.0323 16.3949C98.9487 16.3949 100.306 16.7338 101.105 17.4103C101.784 17.9668 102.143 18.8224 102.184 19.9764C102.223 20.3756 102.242 20.9526 102.242 21.7081V42.6012C102.242 43.5165 102.212 44.2026 102.153 44.6608C102.093 45.1179 101.903 45.6442 101.584 46.2405C101.064 47.2764 99.5271 47.7937 96.9718 47.7937C94.4564 47.7937 92.9199 47.2571 92.3621 46.1827C92.0814 45.5845 91.9108 45.0672 91.8516 44.6295C91.7917 44.1924 91.762 43.496 91.762 42.5409V21.5875ZM101.613 10.5151C101.314 11.0927 100.785 11.5009 100.026 11.7402C99.2669 11.9784 98.2591 12.0972 97.0008 12.0972C95.7438 12.0972 94.7365 11.9784 93.9785 11.7402C93.2199 11.5009 92.6912 11.083 92.3912 10.4861C92.0911 9.88801 91.9108 9.36103 91.8516 8.904C91.7917 8.44577 91.762 7.75962 91.762 6.84436C91.762 5.9297 91.7917 5.24294 91.8516 4.78471C91.9108 4.32647 92.0814 3.8194 92.3621 3.26289C92.9199 2.18724 94.477 1.64941 97.0323 1.64941C99.547 1.64941 101.064 2.18724 101.584 3.26289C101.903 3.8598 102.093 4.38677 102.153 4.845C102.212 5.30203 102.242 5.98818 102.242 6.90465C102.242 7.81992 102.212 8.50606 102.153 8.9643C102.093 9.42133 101.913 9.93805 101.613 10.5151Z" fill="#448D57"/>
<path d="M116.917 32.0643C116.917 33.7561 117.476 35.0693 118.594 36.0051C119.712 36.9396 120.899 37.4063 122.156 37.4063C123.414 37.4063 124.593 37.0391 125.691 36.3041C126.79 35.568 127.678 35.1996 128.355 35.1996C129.554 35.1996 131.011 36.2535 132.728 38.3614C133.646 39.516 134.105 40.5507 134.105 41.4653C134.105 42.9787 133.007 44.392 130.811 45.7052C128.535 47.297 125.74 48.0929 122.427 48.0929C118.713 48.0929 115.14 46.7592 111.707 44.0917C110.07 42.8183 108.732 41.1174 107.693 38.9884C106.655 36.8601 106.137 34.5122 106.137 31.9461C106.137 29.3788 106.655 27.0502 107.693 24.9616C108.732 22.8718 110.07 21.1896 111.707 19.9162C115.021 17.291 118.554 15.9778 122.308 15.9778C123.824 15.9778 125.302 16.187 126.739 16.6048C128.176 17.0215 129.234 17.4291 129.914 17.8276L130.872 18.4257C131.589 18.9033 132.148 19.2813 132.549 19.5593C133.586 20.3551 134.105 21.2608 134.105 22.2749C134.105 23.2897 133.686 24.4334 132.849 25.7068C131.411 27.8955 130.033 28.9893 128.716 28.9893C127.957 28.9893 126.879 28.5521 125.481 27.6773C124.763 27.0008 123.735 26.6619 122.398 26.6619C121.06 26.6619 119.812 27.1394 118.654 28.0945C117.496 29.0496 116.917 30.373 116.917 32.0643Z" fill="#448D57"/>
<path d="M168.425 28.3043C168.425 30.7516 167.816 32.5623 166.599 33.7356C165.38 34.9095 164.032 35.4962 162.555 35.4962H148.361C148.361 36.6104 149.019 37.5462 150.338 38.3035C151.655 39.0596 152.973 39.437 154.289 39.437C156.605 39.437 158.423 39.1982 159.741 38.7207L160.399 38.482C161.357 38.0448 162.156 37.826 162.795 37.826C164.072 37.826 165.17 38.7207 166.088 40.5102C166.607 41.5859 166.867 42.5018 166.867 43.2572C166.867 46.7995 162.614 48.5704 154.11 48.5704C151.154 48.5704 148.529 48.0627 146.234 47.0485C143.938 46.0326 142.152 44.6892 140.874 43.0185C138.359 39.7952 137.102 36.1932 137.102 32.2138C137.102 27.1991 138.728 23.1902 141.982 20.1863C145.236 17.1812 149.298 15.6787 154.171 15.6787C159.72 15.6787 163.792 17.6292 166.388 21.5297C167.746 23.5989 168.425 25.8576 168.425 28.3043ZM155.787 30.0649C157.305 30.0649 158.064 29.4282 158.064 28.1548C158.064 27.2401 157.714 26.5045 157.014 25.948C156.315 25.3903 155.318 25.1111 154.021 25.1111C152.724 25.1111 151.435 25.6387 150.156 26.6932C148.879 27.7466 148.24 28.8705 148.24 30.0649H155.787Z" fill="#448D57"/>
<path d="M190.764 16.395C193.519 16.395 195.136 17.1517 195.615 18.6644C195.856 19.4205 195.976 20.4148 195.976 21.6478C195.976 22.8814 195.846 23.866 195.586 24.6022C195.326 25.339 194.917 25.866 194.357 26.1843C193.52 26.6618 192.303 26.9006 190.706 26.9006L186.873 26.6618V42.6591C186.873 44.1725 186.682 45.297 186.302 46.0331C185.922 46.7699 185.343 47.2577 184.564 47.4971C183.786 47.7353 182.779 47.854 181.54 47.854C180.302 47.854 179.314 47.725 178.575 47.4657C177.838 47.2071 177.31 46.7892 176.99 46.2116C176.671 45.6346 176.48 45.107 176.419 44.6295C176.359 44.152 176.33 43.4562 176.33 42.5409V26.7221H174.174C173.136 26.642 172.398 26.4032 171.96 26.0058C171.2 25.2504 170.82 23.7979 170.82 21.6478C170.82 18.3841 171.998 16.7519 174.355 16.7519H176.33V13.5901C176.33 10.5259 177.427 7.74999 179.623 5.26225C181.82 2.77512 184.995 1.53125 189.147 1.53125C190.065 1.53125 190.754 1.5614 191.214 1.62049C191.674 1.68018 192.202 1.8689 192.801 2.18725C193.879 2.70518 194.418 4.23725 194.418 6.78408C194.418 8.69419 194.078 10.0677 193.399 10.9034C192.841 11.5401 191.962 11.8982 190.764 11.9766C190.406 11.9766 189.847 11.9766 189.087 11.9766C187.611 11.9766 186.873 12.4746 186.873 13.4695V16.7519L190.764 16.395Z" fill="#448D57"/>
<path d="M199.27 21.5875C199.27 20.6728 199.299 19.9873 199.359 19.5302C199.418 19.072 199.589 18.5438 199.87 17.9457C200.427 16.9123 201.985 16.3949 204.54 16.3949C206.456 16.3949 207.814 16.7338 208.612 17.4103C209.291 17.9668 209.651 18.8224 209.691 19.9764C209.73 20.3756 209.75 20.9526 209.75 21.7081V42.6012C209.75 43.5165 209.719 44.2026 209.66 44.6608C209.6 45.1179 209.411 45.6442 209.091 46.2405C208.572 47.2764 207.035 47.7937 204.479 47.7937C201.964 47.7937 200.427 47.2571 199.87 46.1827C199.589 45.5845 199.418 45.0672 199.359 44.6295C199.299 44.1924 199.27 43.496 199.27 42.5409V21.5875ZM209.12 10.5151C208.822 11.0927 208.293 11.5009 207.533 11.7402C206.774 11.9784 205.767 12.0972 204.508 12.0972C203.251 12.0972 202.244 11.9784 201.486 11.7402C200.727 11.5009 200.199 11.083 199.899 10.4861C199.599 9.88801 199.418 9.36103 199.359 8.904C199.299 8.44577 199.27 7.75962 199.27 6.84436C199.27 5.9297 199.299 5.24294 199.359 4.78471C199.418 4.32647 199.589 3.8194 199.87 3.26289C200.427 2.18724 201.985 1.64941 204.54 1.64941C207.055 1.64941 208.572 2.18724 209.091 3.26289C209.411 3.8598 209.6 4.38677 209.66 4.845C209.719 5.30203 209.75 5.98818 209.75 6.90465C209.75 7.81992 209.719 8.50606 209.66 8.9643C209.6 9.42133 209.42 9.93805 209.12 10.5151Z" fill="#448D57"/>
<path d="M244.968 28.3043C244.968 30.7516 244.359 32.5623 243.141 33.7356C241.923 34.9095 240.575 35.4962 239.098 35.4962H224.904C224.904 36.6104 225.562 37.5462 226.881 38.3035C228.198 39.0596 229.516 39.437 230.832 39.437C233.148 39.437 234.966 39.1982 236.284 38.7207L236.942 38.482C237.9 38.0448 238.699 37.826 239.338 37.826C240.615 37.826 241.713 38.7207 242.631 40.5102C243.15 41.5859 243.41 42.5018 243.41 43.2572C243.41 46.7995 239.157 48.5704 230.653 48.5704C227.697 48.5704 225.072 48.0627 222.777 47.0485C220.481 46.0326 218.695 44.6892 217.417 43.0185C214.902 39.7952 213.644 36.1932 213.644 32.2138C213.644 27.1991 215.271 23.1902 218.525 20.1863C221.779 17.1812 225.841 15.6787 230.714 15.6787C236.263 15.6787 240.335 17.6292 242.931 21.5297C244.289 23.5989 244.968 25.8576 244.968 28.3043ZM232.33 30.0649C233.848 30.0649 234.607 29.4282 234.607 28.1548C234.607 27.2401 234.257 26.5045 233.557 25.948C232.858 25.3903 231.861 25.1111 230.564 25.1111C229.267 25.1111 227.978 25.6387 226.699 26.6932C225.422 27.7466 224.783 28.8705 224.783 30.0649H232.33Z" fill="#448D57"/>
<path d="M248.861 6.78408C248.861 5.86941 248.89 5.18387 248.95 4.72684C249.01 4.2686 249.18 3.74043 249.461 3.14231C250.019 2.06847 251.576 1.53125 254.131 1.53125C256.567 1.53125 258.084 2.06847 258.683 3.14231C259.002 3.74043 259.191 4.27825 259.251 4.75578C259.311 5.23331 259.341 5.92971 259.341 6.84437V34.4832C259.341 35.9158 259.46 36.8214 259.699 37.1989C259.939 37.5769 260.468 37.7656 261.286 37.7656C262.105 37.7656 262.655 37.7958 262.934 37.8549C263.215 37.9145 263.554 38.0834 263.953 38.3613C264.751 38.8793 265.151 40.2925 265.151 42.6012C265.151 45.1082 264.751 46.6397 263.953 47.1956C262.915 47.9125 260.44 48.0325 256.527 47.555C253.452 47.1564 251.455 46.1417 250.538 44.5113C249.42 42.5614 248.861 39.4575 248.861 35.1995V6.78408Z" fill="#448D57"/>
<path d="M289.616 3.23153C289.916 2.65452 290.445 2.24693 291.204 2.00877C291.963 1.7694 292.971 1.64941 294.228 1.64941C295.487 1.64941 296.494 1.7694 297.253 2.00877C298.013 2.24693 298.542 2.66477 298.84 3.26289C299.141 3.8598 299.32 4.38677 299.38 4.845C299.439 5.30203 299.47 5.98818 299.47 6.90465V42.5409C299.47 43.4562 299.439 44.1423 299.38 44.6006C299.32 45.0576 299.131 45.5647 298.811 46.1224C298.213 47.1968 296.525 47.7334 293.749 47.7334C290.974 47.7334 289.428 46.7585 289.108 44.808C287.432 46.7181 285.096 47.6731 282.1 47.6731C278.508 47.6731 275.234 46.1121 272.279 42.9895C269.325 39.8657 267.848 36.2245 267.848 32.0666C267.848 27.9075 269.334 24.2561 272.308 21.1124C275.282 17.9674 278.546 16.395 282.1 16.395C285.056 16.395 287.352 17.3904 288.99 19.3807V6.84436C288.99 5.9297 289.019 5.24295 289.079 4.78471C289.138 4.32647 289.317 3.80915 289.616 3.23153ZM279.884 35.677C280.923 36.7515 282.181 37.2881 283.659 37.2881C285.136 37.2881 286.364 36.7515 287.342 35.677C288.319 34.6014 288.808 33.4172 288.808 32.1245C288.808 30.8306 288.339 29.6259 287.4 28.5117C286.462 27.3974 285.195 26.8403 283.598 26.8403C282.001 26.8403 280.724 27.3878 279.765 28.4827C278.807 29.5777 278.328 30.7823 278.328 32.0955C278.328 33.4075 278.846 34.6014 279.884 35.677Z" fill="#448D57"/>
<mask id="mask0_5136_573" style="mask-type:luminance" maskUnits="userSpaceOnUse" x="1" y="6" width="53" height="45">
<path d="M1.47906 6.08838H53.359V50.3877H1.47906V6.08838Z" fill="white"/>
</mask>
<g mask="url(#mask0_5136_573)">
<mask id="mask1_5136_573" style="mask-type:luminance" maskUnits="userSpaceOnUse" x="-6" y="-3" width="65" height="61">
<path d="M9.15821 -2.32739L58.8827 14.7666L44.09 57.5121L-5.63446 40.4175L9.15821 -2.32739Z" fill="white"/>
</mask>
<g mask="url(#mask1_5136_573)">
<mask id="mask2_5136_573" style="mask-type:luminance" maskUnits="userSpaceOnUse" x="-6" y="-3" width="65" height="61">
<path d="M9.15821 -2.32739L58.8827 14.7666L44.09 57.5121L-5.63446 40.4175L9.15821 -2.32739Z" fill="white"/>
</mask>
<g mask="url(#mask2_5136_573)">
<path fill-rule="evenodd" clip-rule="evenodd" d="M25.2388 31.9017C16.397 28.8622 7.99975 24.6398 4.04706 19.2411C4.07307 19.1531 3.96357 19.1398 3.93575 19.2954C2.91702 25.7372 3.74519 31.1872 6.45896 35.9185C9.02211 40.3881 13.319 44.9517 19.853 47.1965C26.2684 49.4014 32.5284 48.5151 37.374 46.5465C42.4349 44.4899 46.3864 40.7535 49.6138 35.0912C43.2952 36.6655 34.0607 34.9345 25.2388 31.9017ZM48.8939 29.3759C49.9755 30.1604 50.3403 31.2933 50.5024 32.5233C52.3505 30.4558 50.523 28.1351 49.0833 27.2162C49.2073 27.8451 49.1788 28.5475 48.8939 29.3759ZM4.91878 15.6488C4.61328 16.7184 5.27691 17.5698 5.83587 18.3735C6.48316 16.3958 7.84973 15.8924 9.42077 15.8061C9.74441 14.5804 10.7643 14.0275 11.0608 13.2183C9.24352 13.5837 5.56849 13.3769 4.91878 15.6488ZM39.5657 12.2663C38.9662 11.9714 38.1598 12.1288 37.5137 11.7465C37.0624 11.48 37.0019 10.7945 36.694 10.3525C35.3033 8.355 33.0535 7.62725 30.7934 8.32425C30.183 8.51237 29.7178 8.97784 29.203 8.8892C28.3131 8.73726 28.1323 8.19582 27.266 8.03785C25.9962 7.80753 24.3653 8.62089 23.695 9.22082C23.1651 9.69534 23.0719 10.3483 22.4028 10.537C21.5626 10.774 20.6884 10.3061 20.0127 10.4569C19.0769 10.6655 17.7732 11.641 17.2415 12.2844C16.8531 12.7547 16.821 13.4408 16.2814 13.7151C15.6638 14.0305 14.5954 13.4987 13.8913 13.635C12.8036 13.846 12.0178 14.7902 11.3669 15.826C11.0886 16.2674 10.9591 17.0796 10.4322 17.4504C9.77284 17.9164 8.53936 17.3702 7.8957 18.0624C7.39239 18.6032 7.44744 19.349 7.23692 19.9664C14.7297 27.3368 32.1206 33.5682 43.5668 33.7539C44.9001 33.7756 47.8238 33.8787 48.4093 33.1944C49.6174 31.7829 47.3404 30.9159 47.1087 29.9662C46.9611 29.3591 47.3192 28.7278 47.3791 28.114C47.4802 27.0588 47.3737 25.8518 46.9079 25.171C46.5425 24.6368 44.9981 24.184 44.7313 23.4032C44.5571 22.8955 44.9273 22.3384 44.914 21.7982C44.8686 19.92 43.8366 18.1468 41.8487 17.2219C41.7725 15.3244 41.2638 13.1026 39.5657 12.2663ZM46.6314 22.4807C48.272 23.7366 49.736 24.7128 51.0118 26.2111C52.065 27.4477 53.5598 29.3609 53.3245 31.0841C53.1926 32.05 52.6391 32.9237 52.1558 33.9257C50.7789 36.7752 49.4644 39.3136 47.7415 41.3057C45.4191 43.9937 42.741 45.8959 39.9783 47.3496C34.3317 50.3161 27.1468 51.5582 19.2795 48.8534C11.3191 46.1166 6.50373 40.7185 3.91215 34.9507C1.67931 29.9837 0.538386 24.2509 2.65508 16.8161C2.96179 15.7386 3.22373 14.5128 3.68651 13.8345C4.23761 13.0278 5.65076 12.2783 6.56967 11.9521C9.10075 11.0544 12.4509 11.2817 15.4708 11.4903C17.2772 10.0462 18.8887 8.20366 21.6436 8.70048C23.1088 7.576 24.678 5.9577 27.1456 6.23626C27.8207 6.31223 28.494 6.78916 29.2514 6.86694C30.0657 6.95195 31.5357 6.18501 32.4842 6.12472C35.3765 5.94263 37.5639 8.11684 38.7266 10.1246C42.4168 11.111 43.2171 13.5023 43.5281 16.1311C45.9593 17.5698 46.5679 19.8929 46.6314 22.4807Z" fill="#448D57"/>
</g>
</g>
</g>
<mask id="mask3_5136_573" style="mask-type:luminance" maskUnits="userSpaceOnUse" x="7" y="7" width="42" height="27">
<path d="M7.20911 7.94067H48.8679V33.872H7.20911V7.94067Z" fill="white"/>
</mask>
<g mask="url(#mask3_5136_573)">
<mask id="mask4_5136_573" style="mask-type:luminance" maskUnits="userSpaceOnUse" x="-6" y="-3" width="65" height="61">
<path d="M9.15821 -2.32739L58.8827 14.7666L44.09 57.5121L-5.63446 40.4175L9.15821 -2.32739Z" fill="white"/>
</mask>
<g mask="url(#mask4_5136_573)">
<mask id="mask5_5136_573" style="mask-type:luminance" maskUnits="userSpaceOnUse" x="-6" y="-3" width="65" height="61">
<path d="M9.15821 -2.32739L58.8827 14.7666L44.09 57.5121L-5.63446 40.4175L9.15821 -2.32739Z" fill="white"/>
</mask>
<g mask="url(#mask5_5136_573)">
<path fill-rule="evenodd" clip-rule="evenodd" d="M41.8488 17.2218C43.8372 18.1467 44.8692 19.92 44.914 21.7981C44.9273 22.3384 44.5571 22.8955 44.7313 23.4032C44.9987 24.184 46.5425 24.6368 46.9079 25.171C47.3743 25.8517 47.4802 27.0594 47.3791 28.1139C47.3199 28.7277 46.9611 29.359 47.1093 29.9662C47.3404 30.9158 49.6174 31.7828 48.4094 33.1943C47.8244 33.8787 44.9007 33.7762 43.5668 33.7539C32.1207 33.5682 14.7304 27.3368 7.23694 19.9664C7.44746 19.349 7.39241 18.6032 7.89572 18.0623C8.53938 17.3701 9.77286 17.9164 10.4322 17.4503C10.9592 17.0795 11.0886 16.2674 11.3669 15.826C12.0178 14.7901 12.8036 13.8459 13.8913 13.6349C14.5955 13.4986 15.6638 14.0304 16.2814 13.7151C16.8211 13.4408 16.8531 12.7546 17.2415 12.2843C17.7726 11.641 19.0769 10.6654 20.0127 10.4568C20.6885 10.3061 21.5626 10.774 22.4029 10.537C23.0719 10.3483 23.1651 9.69529 23.695 9.22078C24.3653 8.62085 25.9962 7.80748 27.266 8.03781C28.1323 8.19578 28.3132 8.73722 29.203 8.88916C29.7178 8.97779 30.183 8.51232 30.7934 8.3242C33.0535 7.6272 35.3033 8.35495 36.694 10.3525C37.002 10.7945 37.0624 11.48 37.5137 11.7465C38.1598 12.1288 38.9662 11.9714 39.5657 12.2662C41.2638 13.1025 41.7731 15.3244 41.8488 17.2218Z" fill="#F9FBEF"/>
</g>
</g>
</g>
<mask id="mask6_5136_573" style="mask-type:luminance" maskUnits="userSpaceOnUse" x="4" y="13" width="8" height="6">
<path d="M4.73126 13.1887H11.0807V18.4367H4.73126V13.1887Z" fill="white"/>
</mask>
<g mask="url(#mask6_5136_573)">
<mask id="mask7_5136_573" style="mask-type:luminance" maskUnits="userSpaceOnUse" x="-6" y="-3" width="65" height="61">
<path d="M9.15821 -2.32739L58.8827 14.7666L44.09 57.5121L-5.63446 40.4175L9.15821 -2.32739Z" fill="white"/>
</mask>
<g mask="url(#mask7_5136_573)">
<mask id="mask8_5136_573" style="mask-type:luminance" maskUnits="userSpaceOnUse" x="-6" y="-3" width="65" height="61">
<path d="M9.15821 -2.32739L58.8827 14.7666L44.09 57.5121L-5.63446 40.4175L9.15821 -2.32739Z" fill="white"/>
</mask>
<g mask="url(#mask8_5136_573)">
<path fill-rule="evenodd" clip-rule="evenodd" d="M11.0602 13.2183C10.7637 14.0268 9.74381 14.5803 9.42077 15.8061C7.84913 15.8923 6.48256 16.3958 5.83527 18.3734C5.27691 17.5691 4.61328 16.7183 4.91878 15.6487C5.56849 13.3768 9.24352 13.5836 11.0602 13.2183Z" fill="#FFD700"/>
</g>
</g>
</g>
<mask id="mask9_5136_573" style="mask-type:luminance" maskUnits="userSpaceOnUse" x="48" y="27" width="4" height="6">
<path d="M48.8679 27.0806H51.3458V32.6373H48.8679V27.0806Z" fill="white"/>
</mask>
<g mask="url(#mask9_5136_573)">
<mask id="mask10_5136_573" style="mask-type:luminance" maskUnits="userSpaceOnUse" x="-6" y="-3" width="65" height="61">
<path d="M9.15827 -2.32739L58.8828 14.7666L44.0901 57.5121L-5.6344 40.4175L9.15827 -2.32739Z" fill="white"/>
</mask>
<g mask="url(#mask10_5136_573)">
<mask id="mask11_5136_573" style="mask-type:luminance" maskUnits="userSpaceOnUse" x="-6" y="-3" width="65" height="61">
<path d="M9.15827 -2.32739L58.8828 14.7666L44.0901 57.5121L-5.6344 40.4175L9.15827 -2.32739Z" fill="white"/>
</mask>
<g mask="url(#mask11_5136_573)">
<path fill-rule="evenodd" clip-rule="evenodd" d="M49.0833 27.2161C50.523 28.1349 52.3506 30.4557 50.5025 32.5232C50.3403 31.2932 49.9756 30.1602 48.8939 29.3758C49.1788 28.5474 49.2073 27.8449 49.0833 27.2161Z" fill="#FFD700"/>
</g>
</g>
</g>
<mask id="mask12_5136_573" style="mask-type:luminance" maskUnits="userSpaceOnUse" x="3" y="19" width="47" height="30">
<path d="M3.49231 19.0542H49.6422V48.5356H3.49231V19.0542Z" fill="white"/>
</mask>
<g mask="url(#mask12_5136_573)">
<mask id="mask13_5136_573" style="mask-type:luminance" maskUnits="userSpaceOnUse" x="-6" y="-3" width="65" height="61">
<path d="M9.15821 -2.32739L58.8827 14.7666L44.09 57.5121L-5.63446 40.4175L9.15821 -2.32739Z" fill="white"/>
</mask>
<g mask="url(#mask13_5136_573)">
<mask id="mask14_5136_573" style="mask-type:luminance" maskUnits="userSpaceOnUse" x="-6" y="-3" width="65" height="61">
<path d="M9.15821 -2.32739L58.8827 14.7666L44.09 57.5121L-5.63446 40.4175L9.15821 -2.32739Z" fill="white"/>
</mask>
<g mask="url(#mask14_5136_573)">
<path fill-rule="evenodd" clip-rule="evenodd" d="M49.6138 35.0913C46.3858 40.7535 42.4349 44.4899 37.3733 46.5465C32.5284 48.5152 26.2684 49.4015 19.853 47.1959C13.319 44.9518 9.02208 40.3881 6.45833 35.9185C3.74516 31.1872 2.91699 25.7372 3.93572 19.2954C3.96354 19.1398 4.07304 19.1531 4.04703 19.2411C7.99912 24.6399 16.3969 28.8623 25.2388 31.9017C34.0607 34.9345 43.2951 36.6655 49.6138 35.0913Z" fill="#FFD700"/>
</g>
</g>
</g>
</svg>
