<svg width="701" height="85" viewBox="0 0 701 85" fill="none" xmlns="http://www.w3.org/2000/svg">
<path d="M88.0215 37.0005H94.6307L101.936 48.7115L109.24 37.0005H115.85V64.8287H109.704V46.5085L102.167 58.4514H101.936L94.1669 46.7404V64.7128H88.0215V37.0005Z" fill="#18453B"/>
<path d="M122.923 64.8287H129.068V37.0005H122.923V64.8287Z" fill="#18453B"/>
<path d="M134.634 51.0305C134.634 43.0299 140.547 36.5366 149.244 36.5366C154.461 36.5366 157.708 38.1599 160.375 40.7109L156.317 45.3489C154.229 43.4937 151.795 42.3342 149.244 42.3342C144.49 42.3342 141.011 46.2765 141.011 51.0305C141.011 55.7845 144.258 59.7268 149.244 59.7268C152.49 59.7268 154.461 58.5673 156.549 56.4802L160.607 60.4225C157.824 63.4372 154.461 65.2925 149.012 65.2925C140.779 65.2925 134.634 58.9151 134.634 51.0305Z" fill="#18453B"/>
<path d="M165.36 37.0005H171.506V48.0158H182.869V37.0005H189.014V64.8287H182.869V53.5815H171.506V64.8287H165.36V37.0005Z" fill="#18453B"/>
<path d="M195.74 64.8287H201.886V37.0005H195.74V64.8287Z" fill="#18453B"/>
<path d="M207.451 51.0305C207.451 43.0299 213.597 36.5366 222.061 36.5366C227.047 36.5366 230.062 37.928 233.192 40.2471L229.366 45.117C227.279 43.2618 225.308 42.3342 222.061 42.3342C217.539 42.3342 214.06 46.2765 214.06 51.0305C214.06 56.1323 217.539 59.9587 222.525 59.9587C224.844 59.9587 226.815 59.4949 228.438 58.3354V54.3931H222.293V49.0593H234.584V61.2342C231.801 63.5532 227.743 65.6403 222.525 65.6403C213.597 65.2925 207.451 59.1471 207.451 51.0305Z" fill="#18453B"/>
<path d="M256.034 53.3495L252.208 44.1894L248.381 53.3495H256.034ZM249.657 36.7686H255.338L267.397 64.8287H261.02L258.469 58.5673H246.642L244.091 64.8287H237.714L249.657 36.7686Z" fill="#18453B"/>
<path d="M271.34 37.0005H277.021L290.24 54.0453V37.0005H296.385V64.8287H291.167L277.485 47.0882V64.8287H271.34V37.0005Z" fill="#18453B"/>
<path d="M312.734 60.8863L316.213 56.4802C318.764 58.5673 321.431 59.7268 324.677 59.7268C327.228 59.7268 328.736 58.7992 328.736 57.1759C328.736 55.5526 327.808 54.8569 323.054 53.6974C317.372 52.306 313.894 50.6827 313.894 45.233C313.894 40.1311 317.952 36.7686 323.75 36.7686C327.808 36.7686 331.287 37.9281 334.069 40.2471L330.823 44.8851C328.272 43.2618 325.837 42.1023 323.518 42.1023C321.199 42.1023 320.039 43.2618 320.039 44.4213C320.039 46.2765 321.199 46.7403 326.185 48.1317C331.866 49.5231 335.113 51.6103 335.113 56.5962C335.113 62.1618 330.823 65.2925 324.793 65.2925C320.271 65.2925 316.097 63.9011 312.734 60.8863Z" fill="#18453B"/>
<path d="M346.012 42.5662H337.548V37.0005H360.854V42.5662H352.39V64.8287H346.244V42.5662H346.012Z" fill="#18453B"/>
<path d="M377.783 53.3495L373.956 44.1894L370.13 53.3495H377.783ZM371.173 36.7686H376.855L388.914 64.8287H382.537L379.986 58.5673H368.159L365.608 64.8287H359.23L371.173 36.7686Z" fill="#18453B"/>
<path d="M395.987 42.5662H387.522V37.0005H410.829V42.5662H402.364V64.8287H396.219V42.5662H395.987Z" fill="#18453B"/>
<path d="M415.235 37.0005H436.454V42.3342H421.381V47.8999H434.599V53.2336H421.381V59.0312H436.686V64.3649H415.235V37.0005Z" fill="#18453B"/>
<path d="M453.963 53.3496V37.2324H456.978V53.1177C456.978 59.1472 460.224 62.5097 465.442 62.5097C470.66 62.5097 473.906 59.495 473.906 53.3496V37.2324H476.921V53.1177C476.921 61.3502 472.167 65.5244 465.094 65.5244C458.601 65.2925 453.963 61.1183 453.963 53.3496Z" fill="#18453B"/>
<path d="M484.573 37.0005H487.588L505.213 59.2631V37.0005H508.227V64.8287H505.676L487.588 41.8704V64.8287H484.573V37.0005Z" fill="#18453B"/>
<path d="M516.112 64.8287H519.127V37.0005H516.112V64.8287Z" fill="#18453B"/>
<path d="M525.041 37.0005H528.52L538.375 60.8864L548.231 37.0005H551.478L539.651 65.0606H536.868L525.041 37.0005Z" fill="#18453B"/>
<path d="M557.042 37.0005H577.334V39.7833H560.173V49.4073H575.479V52.1901H560.173V62.0459H577.334V64.8287H556.811V37.0005H557.042Z" fill="#18453B"/>
<path d="M595.77 51.2625C600.061 51.2625 603.075 49.1753 603.075 45.6968C603.075 42.2183 600.524 40.3631 596.002 40.3631H587.306V51.6103H595.77C595.77 51.4944 595.77 51.2625 595.77 51.2625ZM583.943 37.0005H596.002C599.481 37.0005 602.148 37.9281 604.003 39.7833C605.394 41.1748 606.09 43.0299 606.09 45.1171C606.09 49.7551 602.843 52.422 598.553 53.3496L607.249 64.8287H603.423L595.423 54.0453H587.422V64.8287H584.407V37.0005H583.943Z" fill="#18453B"/>
<path d="M610.844 60.8864L612.699 58.5674C615.482 61.1183 618.381 62.5097 622.323 62.5097C626.149 62.5097 628.7 60.6545 628.7 57.8717C628.7 55.3207 627.309 53.9294 621.395 52.5379C615.018 51.1465 612.003 49.0594 612.003 44.5373C612.003 40.0152 615.83 37.0005 621.163 37.0005C625.222 37.0005 628.236 38.16 631.019 40.479L629.164 42.798C626.613 40.7109 623.946 39.7833 621.163 39.7833C617.685 39.7833 615.25 41.6385 615.25 44.1895C615.25 46.7404 616.641 48.3637 622.787 49.5232C629.164 50.9146 631.947 53.0017 631.947 57.5238C631.947 62.1619 627.888 65.5244 622.323 65.5244C617.917 65.2925 614.09 63.9011 610.844 60.8864Z" fill="#18453B"/>
<path d="M638.324 64.8287H641.339V37.0005H638.324V64.8287Z" fill="#18453B"/>
<path d="M656.993 40.0152H647.601V37.2324H669.515V40.0152H660.123V65.0606H656.877V40.0152H656.993Z" fill="#18453B"/>
<path d="M684.125 53.8134L672.53 37.0005H676.241L685.633 51.0306L695.025 37.0005H698.735L687.14 53.8134V64.8287H683.893L684.125 53.8134Z" fill="#18453B"/>
<path d="M66.3388 10.7955C66.3388 10.7955 62.2805 19.4918 60.1934 23.666C50.1056 19.028 36.8872 18.5642 25.7559 24.8255C18.451 29.2316 12.3056 37.2323 11.8418 45.9286C11.6099 51.4942 14.1608 57.8715 13.2332 63.6691C13.0013 66.6838 12.3056 69.6985 10.9142 72.3654C9.059 75.3801 6.85594 77.931 3.14551 78.1629C3.84121 77.2353 9.75471 74.4525 7.43569 61.582C6.50808 56.4801 -0.564923 43.8415 6.27618 28.0722C12.6535 13.5783 39.4381 -3.46649 66.3388 10.7955Z" fill="#18453B"/>
<path d="M35.4954 36.0729C38.974 34.9134 42.8003 34.9134 46.6267 35.6091C53.6997 36.7686 58.9175 40.9428 61.4684 47.3201C64.0194 53.9293 65.9905 59.0312 70.6286 64.5968C70.8605 64.8287 63.5556 63.4373 63.5556 63.4373C65.4108 50.5667 53.2359 50.1029 49.6415 54.741C52.1924 57.5238 56.4826 58.9152 59.9611 58.4514C59.2654 71.3219 62.7439 82.8011 62.512 82.8011C59.7292 82.3373 46.2789 74.5686 42.2206 71.0901C36.539 72.0177 31.901 74.1048 25.2918 75.0324C25.0599 75.0324 26.4513 70.1624 26.2194 67.7275C26.2194 60.8863 21.0016 54.625 24.828 46.3925C27.031 41.4066 30.2776 37.9281 35.4954 36.0729Z" fill="#18453B"/>
<path d="M40.25 32.0145H41.1776C41.1776 31.5507 41.6414 28.304 44.4242 26.2169C47.439 23.666 51.4972 23.8979 51.4972 23.8979C47.439 22.7384 43.4966 22.5065 40.7138 22.9703L40.25 32.0145Z" fill="#18453B"/>
<path d="M14.9721 43.7256C14.2764 47.436 14.2764 51.2624 14.7402 53.1176C14.7402 53.1176 15.204 49.871 17.0593 48.0157C18.6826 46.3924 20.7697 46.1606 21.5813 46.1606C21.5813 46.1606 22.0451 45.0011 21.8132 45.0011C21.8132 44.8851 14.9721 43.7256 14.9721 43.7256Z" fill="#18453B"/>
<path d="M22.509 43.0299C22.7409 42.5661 22.9728 42.1023 23.2047 41.4066L16.1317 38.6238C15.6679 39.5514 15.436 40.7109 15.2041 41.4066L22.509 43.0299Z" fill="#18453B"/>
<path d="M24.364 40.4789L25.5235 39.0875L18.9143 34.2175C18.2186 34.9132 17.7548 35.8408 17.291 37.0003C17.407 37.0003 24.364 40.4789 24.364 40.4789Z" fill="#18453B"/>
<path d="M26.7996 37.696L28.191 36.3046L22.5094 30.0432C21.3499 31.2027 20.8861 31.6665 20.1904 32.5941L26.7996 37.696Z" fill="#18453B"/>
<path d="M29.582 35.609L31.2053 34.6813L26.9151 27.1445C25.5237 27.8402 24.3642 28.5359 23.9004 28.9998L29.582 35.609Z" fill="#18453B"/>
<path d="M32.7128 33.8698L34.5681 33.1741L32.249 24.7097C30.8576 25.1735 29.2343 25.8692 28.7705 26.1011L32.7128 33.8698Z" fill="#18453B"/>
<path d="M36.1919 32.7101L38.0471 32.2463L38.279 23.0862C38.279 23.0862 36.1919 23.55 34.2207 24.0138C34.3367 24.1298 36.1919 32.7101 36.1919 32.7101Z" fill="#18453B"/>
</svg>
