<svg xmlns="http://www.w3.org/2000/svg" xmlns:xlink="http://www.w3.org/1999/xlink" width="3000" zoomAndPan="magnify" viewBox="0 0 2250 2250.000011" height="3000" preserveAspectRatio="xMidYMid meet" version="1.0"><defs><clipPath id="8da8c13c21"><path d="M 0.5 0 L 2249.5 0 L 2249.5 2249 L 0.5 2249 Z M 0.5 0 " clip-rule="nonzero"/></clipPath><clipPath id="f21f35d398"><path d="M 1125 0 C 503.957031 0 0.5 503.457031 0.5 1124.5 C 0.5 1745.542969 503.957031 2249 1125 2249 C 1746.042969 2249 2249.5 1745.542969 2249.5 1124.5 C 2249.5 503.457031 1746.042969 0 1125 0 Z M 1125 0 " clip-rule="nonzero"/></clipPath><clipPath id="abc7017af8"><path d="M 405 509 L 1886 509 L 1886 1778 L 405 1778 Z M 405 509 " clip-rule="nonzero"/></clipPath><clipPath id="4a2d7feff3"><path d="M 623.324219 267.875 L 2047.796875 759.210938 L 1626.375 1981 L 201.898438 1489.664062 Z M 623.324219 267.875 " clip-rule="nonzero"/></clipPath><clipPath id="1ba8a77aec"><path d="M 623.324219 267.875 L 2047.796875 759.210938 L 1626.375 1981 L 201.898438 1489.664062 Z M 623.324219 267.875 " clip-rule="nonzero"/></clipPath><clipPath id="46a2200bb0"><path d="M 568 563 L 1755 563 L 1755 1303 L 568 1303 Z M 568 563 " clip-rule="nonzero"/></clipPath><clipPath id="960998c7a6"><path d="M 623.324219 267.875 L 2047.796875 759.210938 L 1626.375 1981 L 201.898438 1489.664062 Z M 623.324219 267.875 " clip-rule="nonzero"/></clipPath><clipPath id="c6d4e112e7"><path d="M 623.324219 267.875 L 2047.796875 759.210938 L 1626.375 1981 L 201.898438 1489.664062 Z M 623.324219 267.875 " clip-rule="nonzero"/></clipPath><clipPath id="a08fd8795e"><path d="M 500 713 L 678 713 L 678 862 L 500 862 Z M 500 713 " clip-rule="nonzero"/></clipPath><clipPath id="7d97cb3b9a"><path d="M 623.324219 267.875 L 2047.796875 759.210938 L 1626.375 1981 L 201.898438 1489.664062 Z M 623.324219 267.875 " clip-rule="nonzero"/></clipPath><clipPath id="e38a107f8a"><path d="M 623.324219 267.875 L 2047.796875 759.210938 L 1626.375 1981 L 201.898438 1489.664062 Z M 623.324219 267.875 " clip-rule="nonzero"/></clipPath><clipPath id="da40e8ac29"><path d="M 1758 1114 L 1827 1114 L 1827 1267 L 1758 1267 Z M 1758 1114 " clip-rule="nonzero"/></clipPath><clipPath id="499c649ad8"><path d="M 623.324219 267.875 L 2047.796875 759.210938 L 1626.375 1981 L 201.898438 1489.664062 Z M 623.324219 267.875 " clip-rule="nonzero"/></clipPath><clipPath id="df6eaf79a6"><path d="M 623.324219 267.875 L 2047.796875 759.210938 L 1626.375 1981 L 201.898438 1489.664062 Z M 623.324219 267.875 " clip-rule="nonzero"/></clipPath><clipPath id="4f3548a1a1"><path d="M 462 884 L 1780 884 L 1780 1725 L 462 1725 Z M 462 884 " clip-rule="nonzero"/></clipPath><clipPath id="80f78fbe65"><path d="M 623.324219 267.875 L 2047.796875 759.210938 L 1626.375 1981 L 201.898438 1489.664062 Z M 623.324219 267.875 " clip-rule="nonzero"/></clipPath><clipPath id="87af624836"><path d="M 623.324219 267.875 L 2047.796875 759.210938 L 1626.375 1981 L 201.898438 1489.664062 Z M 623.324219 267.875 " clip-rule="nonzero"/></clipPath></defs><g clip-path="url(#8da8c13c21)"><g clip-path="url(#f21f35d398)"><path fill="#448d57" d="M 0.5 0 L 2249.5 0 L 2249.5 2249 L 0.5 2249 Z M 0.5 0 " fill-opacity="1" fill-rule="nonzero"/></g></g><g clip-path="url(#abc7017af8)"><g clip-path="url(#4a2d7feff3)"><g clip-path="url(#1ba8a77aec)"><path fill="#448d57" d="M 1082.695312 1248.929688 C 830.113281 1161.804688 590.238281 1040.796875 477.324219 886.0625 C 478.066406 883.53125 474.941406 883.148438 474.140625 887.617188 C 445.054688 1072.238281 468.707031 1228.453125 546.226562 1364.050781 C 619.441406 1492.164062 742.199219 1622.953125 928.851562 1687.289062 C 1112.121094 1750.5 1290.941406 1725.082031 1429.351562 1668.664062 C 1573.933594 1609.71875 1686.804688 1502.636719 1779.007812 1340.34375 C 1598.507812 1385.457031 1334.703125 1335.851562 1082.703125 1248.929688 Z M 1758.445312 1176.542969 C 1789.335938 1199.011719 1799.761719 1231.484375 1804.382812 1266.746094 C 1857.1875 1207.488281 1804.984375 1140.980469 1763.847656 1114.640625 C 1767.394531 1132.664062 1766.585938 1152.800781 1758.445312 1176.542969 Z M 502.234375 783.101562 C 493.503906 813.753906 512.460938 838.148438 528.425781 861.1875 C 546.910156 804.507812 585.957031 790.074219 630.84375 787.609375 C 640.074219 752.476562 669.210938 736.625 677.675781 713.4375 C 625.777344 723.917969 520.792969 717.980469 502.234375 783.101562 Z M 1491.96875 686.15625 C 1474.839844 677.707031 1451.804688 682.207031 1433.355469 671.257812 C 1420.457031 663.621094 1418.722656 643.976562 1409.933594 631.304688 C 1370.210938 574.042969 1305.929688 553.195312 1241.378906 573.167969 C 1223.941406 578.5625 1210.644531 591.894531 1195.941406 589.367188 C 1170.519531 585.011719 1165.363281 569.488281 1140.605469 564.964844 C 1104.335938 558.355469 1057.746094 581.664062 1038.609375 598.859375 C 1023.453125 612.460938 1020.808594 631.1875 1001.691406 636.589844 C 977.679688 643.378906 952.714844 629.964844 933.414062 634.289062 C 906.679688 640.277344 869.425781 668.238281 854.246094 686.675781 C 843.15625 700.152344 842.242188 719.808594 826.824219 727.6875 C 809.167969 736.71875 778.664062 721.480469 758.550781 725.386719 C 727.46875 731.425781 705.023438 758.492188 686.421875 788.179688 C 678.488281 800.832031 674.777344 824.105469 659.738281 834.730469 C 640.894531 848.085938 605.660156 832.445312 587.273438 852.285156 C 572.886719 867.78125 574.464844 889.160156 568.453125 906.847656 C 782.492188 1118.085938 1279.28125 1296.695312 1606.257812 1302.011719 C 1644.355469 1302.644531 1727.875 1305.597656 1744.597656 1285.972656 C 1779.105469 1245.515625 1714.066406 1220.664062 1707.453125 1193.460938 C 1703.226562 1176.050781 1713.464844 1157.960938 1715.164062 1140.363281 C 1718.058594 1110.132812 1715.019531 1075.535156 1701.707031 1056.019531 C 1691.273438 1040.707031 1647.15625 1027.722656 1639.527344 1005.351562 C 1634.550781 990.796875 1645.128906 974.832031 1644.75 959.339844 C 1643.460938 905.511719 1613.976562 854.691406 1557.179688 828.191406 C 1555.015625 773.796875 1540.476562 710.125 1491.964844 686.15625 Z M 1693.804688 978.917969 C 1740.679688 1014.898438 1782.503906 1042.894531 1818.9375 1085.828125 C 1849.03125 1121.265625 1891.726562 1176.109375 1885.011719 1225.503906 C 1881.238281 1253.167969 1865.433594 1278.222656 1851.621094 1306.941406 C 1812.292969 1388.609375 1774.738281 1461.355469 1725.515625 1518.453125 C 1659.179688 1595.503906 1582.667969 1650.027344 1503.757812 1691.675781 C 1342.457031 1776.707031 1137.203125 1812.300781 912.460938 1734.785156 C 685.0625 1656.347656 547.5 1501.625 473.476562 1336.308594 C 409.691406 1193.960938 377.105469 1029.640625 437.566406 816.550781 C 446.324219 785.671875 453.8125 750.542969 467.035156 731.109375 C 482.761719 707.980469 523.140625 686.5 549.394531 677.15625 C 621.6875 651.414062 717.40625 657.9375 803.65625 663.917969 C 855.269531 622.527344 901.296875 569.707031 980 583.945312 C 1021.847656 551.730469 1066.675781 505.347656 1137.164062 513.320312 C 1156.457031 515.496094 1175.6875 529.167969 1197.332031 531.40625 C 1220.582031 533.828125 1262.574219 511.847656 1289.671875 510.136719 C 1372.296875 504.902344 1434.78125 567.226562 1467.992188 624.765625 C 1573.421875 653.042969 1596.28125 721.585938 1605.167969 796.929688 C 1674.601562 838.15625 1691.996094 904.746094 1693.804688 978.914062 " fill-opacity="1" fill-rule="evenodd"/></g></g></g><g clip-path="url(#46a2200bb0)"><g clip-path="url(#960998c7a6)"><g clip-path="url(#c6d4e112e7)"><path fill="#f9fbef" d="M 1557.183594 828.191406 C 1613.980469 854.695312 1643.464844 905.515625 1644.753906 959.34375 C 1645.132812 974.832031 1634.554688 990.796875 1639.53125 1005.355469 C 1647.160156 1027.726562 1691.277344 1040.710938 1701.710938 1056.023438 C 1715.023438 1075.535156 1718.0625 1110.132812 1715.167969 1140.367188 C 1713.46875 1157.960938 1703.230469 1176.054688 1707.457031 1193.460938 C 1714.070312 1220.667969 1779.109375 1245.519531 1744.601562 1285.976562 C 1727.882812 1305.597656 1644.359375 1302.644531 1606.261719 1302.011719 C 1279.285156 1296.695312 782.507812 1118.089844 568.457031 906.847656 C 574.464844 889.160156 572.890625 867.78125 587.273438 852.285156 C 605.660156 832.445312 640.894531 848.085938 659.738281 834.730469 C 674.777344 824.105469 678.488281 800.832031 686.421875 788.179688 C 705.023438 758.492188 727.46875 731.425781 758.550781 725.386719 C 778.664062 721.480469 809.167969 736.71875 826.824219 727.6875 C 842.242188 719.808594 843.15625 700.152344 854.246094 686.675781 C 869.425781 668.238281 906.679688 640.277344 933.414062 634.289062 C 952.714844 629.964844 977.679688 643.378906 1001.691406 636.589844 C 1020.808594 631.1875 1023.453125 612.460938 1038.609375 598.859375 C 1057.746094 581.664062 1104.335938 558.355469 1140.605469 564.964844 C 1165.363281 569.488281 1170.519531 585.011719 1195.941406 589.367188 C 1210.644531 591.894531 1223.941406 578.5625 1241.378906 573.167969 C 1305.929688 553.195312 1370.210938 574.042969 1409.933594 631.304688 C 1418.722656 643.976562 1420.457031 663.621094 1433.355469 671.257812 C 1451.804688 682.207031 1474.839844 677.707031 1491.96875 686.15625 C 1540.480469 710.125 1555.019531 773.796875 1557.183594 828.191406 " fill-opacity="1" fill-rule="evenodd"/></g></g></g><g clip-path="url(#a08fd8795e)"><g clip-path="url(#7d97cb3b9a)"><g clip-path="url(#e38a107f8a)"><path fill="#ffd700" d="M 677.667969 713.4375 C 669.199219 736.621094 640.066406 752.472656 630.835938 787.605469 C 585.945312 790.070312 546.902344 804.503906 528.417969 861.183594 C 512.453125 838.148438 493.496094 813.753906 502.226562 783.097656 C 520.78125 717.980469 625.765625 723.914062 677.667969 713.4375 " fill-opacity="1" fill-rule="evenodd"/></g></g></g><g clip-path="url(#da40e8ac29)"><g clip-path="url(#499c649ad8)"><g clip-path="url(#df6eaf79a6)"><path fill="#ffd700" d="M 1763.847656 1114.640625 C 1804.984375 1140.980469 1857.1875 1207.488281 1804.382812 1266.746094 C 1799.761719 1231.484375 1789.335938 1199.011719 1758.445312 1176.542969 C 1766.585938 1152.800781 1767.394531 1132.664062 1763.847656 1114.640625 " fill-opacity="1" fill-rule="evenodd"/></g></g></g><g clip-path="url(#4f3548a1a1)"><g clip-path="url(#80f78fbe65)"><g clip-path="url(#87af624836)"><path fill="#ffd700" d="M 1779 1340.34375 C 1686.796875 1502.636719 1573.925781 1609.714844 1429.34375 1668.660156 C 1290.933594 1725.082031 1112.113281 1750.496094 928.84375 1687.285156 C 742.199219 1622.953125 619.441406 1492.164062 546.214844 1364.046875 C 468.707031 1228.453125 445.054688 1072.238281 474.140625 887.617188 C 474.941406 883.148438 478.066406 883.53125 477.335938 886.066406 C 590.230469 1040.796875 830.113281 1161.804688 1082.707031 1248.933594 C 1334.710938 1335.855469 1598.511719 1385.460938 1779.011719 1340.347656 " fill-opacity="1" fill-rule="evenodd"/></g></g></g></svg>