<svg width="35" height="40" viewBox="0 0 35 40" fill="none" xmlns="http://www.w3.org/2000/svg">
<g clip-path="url(#clip0_5197_962)">
<path d="M27.5625 6.26667C26.0675 4.53228 25.2435 2.30533 25.2437 0H18.4844V27.5556C18.4333 29.0471 17.8139 30.4602 16.7569 31.4967C15.6999 32.5332 14.2878 33.112 12.8187 33.1111C9.71247 33.1111 7.13123 30.5333 7.13123 27.3333C7.13123 23.5111 10.7625 20.6444 14.5031 21.8222V14.8C6.95623 13.7778 0.349976 19.7333 0.349976 27.3333C0.349976 34.7333 6.38748 40 12.7969 40C19.6656 40 25.2437 34.3333 25.2437 27.3333V13.3556C27.9847 15.3552 31.2755 16.4281 34.65 16.4222V9.55556C34.65 9.55556 30.5375 9.75556 27.5625 6.26667Z" fill="white"/>
</g>
<defs>
<clipPath id="clip0_5197_962">
<rect width="35" height="40" fill="white"/>
</clipPath>
</defs>
</svg>
