<svg width="51" height="51" viewBox="0 0 51 51" fill="none" xmlns="http://www.w3.org/2000/svg">
<g clip-path="url(#clip0_5165_538)">
<g clip-path="url(#clip1_5165_538)">
<path d="M35.5049 26.912V49.9412H15.3068V26.912V26.162H14.5568H4.62396C3.08606 26.0981 2.17433 25.6466 1.67973 24.9654L1.67974 24.9654L1.67689 24.9616C1.01273 24.0592 1.03747 23.1763 1.43492 22.2853C1.85306 21.3477 2.67561 20.4434 3.53329 19.6818L3.03532 19.121L3.53329 19.6818L22.7128 2.65164L22.7297 2.63668L22.7456 2.62073C24.3159 1.04797 26.4958 1.04797 28.0662 2.62073L28.0825 2.63713L28.0999 2.65249L46.8063 19.2051L46.8064 19.2052C47.733 20.025 48.7135 21.0087 49.2522 22.046C49.5168 22.5557 49.6573 23.0459 49.6537 23.5135C49.6503 23.9699 49.51 24.4519 49.1349 24.9615L49.132 24.9654C48.6375 25.6465 47.7258 26.0981 46.1867 26.162H36.2549H35.5049V26.912Z" stroke="black" stroke-width="1.5"/>
</g>
</g>
<defs>
<clipPath id="clip0_5165_538">
<rect width="50" height="50" fill="white" transform="translate(0.403809 0.691162)"/>
</clipPath>
<clipPath id="clip1_5165_538">
<rect width="50" height="50" fill="white" transform="translate(0.403809 0.691162)"/>
</clipPath>
</defs>
</svg>
