<svg width="1920" height="981" viewBox="0 0 1920 981" fill="none" xmlns="http://www.w3.org/2000/svg">
<g clip-path="url(#clip0_5101_1682)">
<rect width="1920" height="981" fill="white"/>
<mask id="mask0_5101_1682" style="mask-type:luminance" maskUnits="userSpaceOnUse" x="0" y="0" width="1920" height="981">
<path d="M0.426636 0H1919.57V980.564H0.426636V0Z" fill="white"/>
</mask>
<g mask="url(#mask0_5101_1682)">
<path d="M0.426636 0H1919.57V980.564H0.426636V0Z" fill="white"/>
<path d="M0.426636 0H1919.57V980.564H0.426636V0Z" fill="#FEFEFE"/>
<path fill-rule="evenodd" clip-rule="evenodd" d="M0.426636 0H1919.57V980.564H0.426636V0Z" fill="#72C9F2"/>
</g>
<mask id="mask1_5101_1682" style="mask-type:luminance" maskUnits="userSpaceOnUse" x="0" y="187" width="1920" height="794">
<path d="M0.426636 187.916H1919.57V980.564H0.426636V187.916Z" fill="white"/>
</mask>
<g mask="url(#mask1_5101_1682)">
<path fill-rule="evenodd" clip-rule="evenodd" d="M0.426636 980.564V202.731C2.82664 202.731 4.7433 202.486 7.1433 202.486C60.88 201.262 106.94 219.892 118.933 245.631C188.503 247.592 247.037 271.861 266.227 304.955C281.58 302.013 298.373 300.298 316.127 299.808C349.23 299.072 380.417 303.485 407.287 311.575C424.077 293.433 460.063 280.442 502.283 279.461C559.857 278.234 609.277 299.808 616.473 328.734C655.337 329.47 691.32 335.843 721.547 346.63C723.467 305.691 782.96 271.371 861.643 265.733C860.203 261.811 858.763 258.134 858.287 253.967C855.887 222.833 903.387 196.604 963.837 195.377C1016.14 194.151 1061.71 211.557 1075.15 236.315C1086.66 234.6 1098.66 233.619 1111.13 233.374C1147.12 232.638 1181.66 238.032 1209.49 247.837C1233.48 229.697 1273.3 217.44 1319.36 216.215C1396.61 214.744 1461.86 245.141 1465.22 284.609C1465.22 286.324 1465.22 287.796 1465.22 289.511C1471.45 288.777 1477.21 288.532 1482.01 288.532C1504.08 288.286 1510.32 289.267 1523.27 291.228C1536.22 261.566 1605.79 239.013 1648.97 238.277C1692.15 237.787 1696.47 240.973 1716.14 246.612C1757.41 192.927 1845.21 181.65 1919.57 191.21V980.564H0.426636Z" fill="#C4E2F6"/>
</g>
<mask id="mask2_5101_1682" style="mask-type:luminance" maskUnits="userSpaceOnUse" x="0" y="528" width="1920" height="453">
<path d="M0.426636 528.868H1919.57V980.564H0.426636V528.868Z" fill="white"/>
</mask>
<g mask="url(#mask2_5101_1682)">
<path fill-rule="evenodd" clip-rule="evenodd" d="M1919.57 687.131C1899.9 697.426 1884.07 709.929 1873.03 723.901C1852.4 718.753 1829.85 715.321 1805.86 713.606C1760.76 710.665 1717.1 714.587 1678.72 724.147C1660.01 697.917 1614.43 678.06 1556.85 673.893C1478.17 668.5 1405.24 695.221 1388.93 734.197C1335.67 732.727 1284.34 739.1 1240.68 751.848C1248.35 695.71 1174.94 645.212 1068.91 632.464C1072.27 627.315 1074.67 622.169 1076.11 616.775C1087.14 574.365 1029.09 535.388 946.087 529.75C875.077 524.847 809.347 545.93 784.877 578.778C769.523 575.837 753.213 573.875 736.42 572.65C687 569.217 639.023 574.365 598.24 585.887C569.933 559.657 518.597 540.291 455.743 536.123C350.67 528.769 254.233 566.521 240.32 620.207C239.36 622.414 239.36 624.619 238.88 626.825C230.723 625.6 222.567 624.619 215.85 624.374C186.103 622.414 177.467 623.638 159.237 625.355C148.68 584.172 59.44 548.871 0.426636 545.194V980.564H1919.57V687.131Z" fill="#E6F4FC"/>
</g>
<mask id="mask3_5101_1682" style="mask-type:luminance" maskUnits="userSpaceOnUse" x="0" y="657" width="1920" height="463">
<path d="M0.426636 657H1919.57V1119.56H0.426636V657Z" fill="white"/>
</mask>
<g mask="url(#mask3_5101_1682)">
<path fill-rule="evenodd" clip-rule="evenodd" d="M0.426636 935.892C10.5033 933.496 20.5766 931.697 31.6133 931.098C99.2633 926.004 160.197 956.267 168.353 998.215C169.31 1003.61 169.31 1009 168.83 1014.1C257.113 1013.2 334.837 1052.45 350.67 1107.28C380.417 1089.6 417.84 1077.02 460.543 1071.62C458.143 1032.07 504.683 997.316 568.493 992.821C615.513 989.226 659.173 1002.71 684.603 1025.48C710.51 1011.4 743.617 1002.11 780.08 999.414C799.75 997.915 818.943 998.515 837.173 1000.61C846.77 954.169 902.427 914.919 977.753 904.731C982.07 868.777 1026.69 838.813 1085.7 834.319C1152.87 829.225 1213.81 859.188 1222.44 901.136C1231.56 899.637 1240.68 898.438 1250.27 897.839C1266.1 896.642 1280.98 896.642 1295.85 897.839C1334.71 865.479 1398.05 841.809 1449.38 837.314C1516.07 831.923 1543.42 839.113 1583.24 852.296C1612.51 807.652 1698.87 771.996 1760.28 766.902C1821.7 761.81 1840.89 767.201 1876.39 776.49C1875.43 773.494 1893.66 815.442 1873.99 767.801C1856.24 724.954 1877.35 686.903 1919.57 657.239V1119.56H0.426636V935.892Z" fill="#F6F8F9"/>
</g>
<mask id="mask4_5101_1682" style="mask-type:luminance" maskUnits="userSpaceOnUse" x="0" y="730" width="1920" height="390">
<path d="M1919.57 730H0.426514V1119.56H1919.57V730Z" fill="white"/>
</mask>
<g mask="url(#mask4_5101_1682)">
<path fill-rule="evenodd" clip-rule="evenodd" d="M1919.57 964.878C1909.5 962.86 1899.42 961.346 1888.39 960.841C1820.74 956.551 1759.8 982.038 1751.65 1017.37C1750.69 1021.91 1750.69 1026.45 1751.17 1030.74C1662.89 1029.98 1585.16 1063.04 1569.33 1109.22C1539.58 1094.33 1502.16 1083.73 1459.46 1079.19C1461.86 1045.88 1415.32 1016.61 1351.51 1012.82C1304.49 1009.8 1260.83 1021.15 1235.4 1040.33C1209.49 1028.47 1176.38 1020.65 1139.92 1018.38C1120.25 1017.11 1101.06 1017.62 1082.83 1019.39C1073.23 980.271 1017.57 947.215 942.247 938.635C937.93 908.355 893.31 883.12 834.297 879.335C767.127 875.045 706.193 900.28 697.557 935.608C688.44 934.345 679.323 933.336 669.73 932.831C653.896 931.823 639.023 931.823 624.15 932.831C585.286 905.578 521.953 885.643 470.617 881.858C403.927 877.317 376.58 883.373 336.757 894.475C307.49 856.877 221.13 826.848 159.717 822.558C98.3032 818.269 79.1099 822.81 43.6066 830.633C44.5665 828.11 26.3365 863.438 46.0065 823.315C63.7599 787.23 42.6465 755.184 0.426514 730.202V1119.56H1919.57V964.878Z" fill="#F6F8F9"/>
</g>
</g>
<defs>
<clipPath id="clip0_5101_1682">
<rect width="1920" height="981" fill="white"/>
</clipPath>
</defs>
</svg>
